<svg xmlns="http://www.w3.org/2000/svg" xmlns:xlink="http://www.w3.org/1999/xlink" xmlns:lucid="lucid" width="1392.5" height="1133.8"><g transform="translate(-159.5 -133)" lucid:page-tab-id="HWEp-vi-RSFO"><path d="M1160 929h200v221h-200z" stroke="#333" stroke-width="2" fill="#fff"/><path d="M1160 966.6h200m-200 145.6h200" stroke="#333" stroke-width="2" fill="none"/><use xlink:href="#a" transform="matrix(1,0,0,1,1168,937) translate(57.05 14.6)"/><use xlink:href="#b" transform="matrix(1,0,0,1,1172,974.6) translate(0 14.600000000000003)"/><use xlink:href="#c" transform="matrix(1,0,0,1,1172,974.6) translate(15.5 14.600000000000003)"/><use xlink:href="#d" transform="matrix(1,0,0,1,1172,974.6) translate(39.45 14.600000000000003)"/><use xlink:href="#e" transform="matrix(1,0,0,1,1172,974.6) translate(0 36.2)"/><use xlink:href="#f" transform="matrix(1,0,0,1,1172,974.6) translate(10.95 36.2)"/><use xlink:href="#g" transform="matrix(1,0,0,1,1172,974.6) translate(94.85000000000001 36.2)"/><use xlink:href="#e" transform="matrix(1,0,0,1,1172,974.6) translate(0 57.800000000000004)"/><use xlink:href="#h" transform="matrix(1,0,0,1,1172,974.6) translate(10.95 57.800000000000004)"/><use xlink:href="#g" transform="matrix(1,0,0,1,1172,974.6) translate(70.85000000000001 57.800000000000004)"/><use xlink:href="#e" transform="matrix(1,0,0,1,1172,974.6) translate(0 79.40000000000002)"/><use xlink:href="#i" transform="matrix(1,0,0,1,1172,974.6) translate(10.95 79.40000000000002)"/><use xlink:href="#g" transform="matrix(1,0,0,1,1172,974.6) translate(59.85000000000001 79.40000000000002)"/><use xlink:href="#e" transform="matrix(1,0,0,1,1172,974.6) translate(0 101.00000000000001)"/><use xlink:href="#j" transform="matrix(1,0,0,1,1172,974.6) translate(10.95 101.00000000000001)"/><use xlink:href="#g" transform="matrix(1,0,0,1,1172,974.6) translate(101.85000000000001 101.00000000000001)"/><use xlink:href="#e" transform="matrix(1,0,0,1,1172,974.6) translate(0 122.60000000000001)"/><use xlink:href="#k" transform="matrix(1,0,0,1,1172,974.6) translate(10.95 122.60000000000001)"/><use xlink:href="#l" transform="matrix(1,0,0,1,1172,974.6) translate(69.85000000000001 122.60000000000001)"/><use xlink:href="#b" transform="matrix(1,0,0,1,1172,1120.2) translate(0 14.6)"/><use xlink:href="#m" transform="matrix(1,0,0,1,1172,1120.2) translate(15.5 14.6)"/><use xlink:href="#n" transform="matrix(1,0,0,1,1172,1120.2) translate(127.20000000000002 14.6)"/><path d="M220 180h222.8v221H220z" stroke="#333" stroke-width="2" fill="#fff"/><path d="M220 217.6h222.8M220 363.2h222.8" stroke="#333" stroke-width="2" fill="none"/><use xlink:href="#o" transform="matrix(1,0,0,1,228,188) translate(68.07499999999999 14.6)"/><use xlink:href="#b" transform="matrix(1,0,0,1,232,225.6) translate(0 14.600000000000003)"/><use xlink:href="#c" transform="matrix(1,0,0,1,232,225.6) translate(15.5 14.600000000000003)"/><use xlink:href="#d" transform="matrix(1,0,0,1,232,225.6) translate(39.45 14.600000000000003)"/><use xlink:href="#e" transform="matrix(1,0,0,1,232,225.6) translate(0 36.2)"/><use xlink:href="#p" transform="matrix(1,0,0,1,232,225.6) translate(10.95 36.2)"/><use xlink:href="#g" transform="matrix(1,0,0,1,232,225.6) translate(81.85000000000001 36.2)"/><use xlink:href="#e" transform="matrix(1,0,0,1,232,225.6) translate(0 57.800000000000004)"/><use xlink:href="#q" transform="matrix(1,0,0,1,232,225.6) translate(10.95 57.800000000000004)"/><use xlink:href="#g" transform="matrix(1,0,0,1,232,225.6) translate(91.80000000000001 57.800000000000004)"/><use xlink:href="#e" transform="matrix(1,0,0,1,232,225.6) translate(0 79.40000000000002)"/><use xlink:href="#r" transform="matrix(1,0,0,1,232,225.6) translate(10.95 79.40000000000002)"/><use xlink:href="#d" transform="matrix(1,0,0,1,232,225.6) translate(136.8 79.40000000000002)"/><use xlink:href="#e" transform="matrix(1,0,0,1,232,225.6) translate(0 101.00000000000001)"/><use xlink:href="#s" transform="matrix(1,0,0,1,232,225.6) translate(10.95 101.00000000000001)"/><use xlink:href="#g" transform="matrix(1,0,0,1,232,225.6) translate(40.849999999999994 101.00000000000001)"/><use xlink:href="#e" transform="matrix(1,0,0,1,232,225.6) translate(0 122.60000000000001)"/><use xlink:href="#t" transform="matrix(1,0,0,1,232,225.6) translate(10.95 122.60000000000001)"/><use xlink:href="#l" transform="matrix(1,0,0,1,232,225.6) translate(50.900000000000006 122.60000000000001)"/><path d="M1280 180h220v242h-220z" stroke="#333" stroke-width="2" fill="#fff"/><path d="M1280 217.6h220m-220 37.6h220" stroke="#333" stroke-width="2" fill="none"/><use xlink:href="#u" transform="matrix(1,0,0,1,1288,188) translate(38.12499999999999 14.6)"/><use xlink:href="#e" transform="matrix(1,0,0,1,1292,263.2) translate(0 14.800000000000006)"/><use xlink:href="#v" transform="matrix(1,0,0,1,1292,263.2) translate(10.95 14.800000000000006)"/><use xlink:href="#w" transform="matrix(1,0,0,1,1292,263.2) translate(133.65 14.800000000000006)"/><use xlink:href="#e" transform="matrix(1,0,0,1,1292,263.2) translate(0 36.400000000000006)"/><use xlink:href="#x" transform="matrix(1,0,0,1,1292,263.2) translate(10.95 36.400000000000006)"/><use xlink:href="#w" transform="matrix(1,0,0,1,1292,263.2) translate(126.70000000000002 36.400000000000006)"/><use xlink:href="#e" transform="matrix(1,0,0,1,1292,263.2) translate(0 58.00000000000001)"/><use xlink:href="#y" transform="matrix(1,0,0,1,1292,263.2) translate(10.95 58.00000000000001)"/><use xlink:href="#w" transform="matrix(1,0,0,1,1292,263.2) translate(165.55 58.00000000000001)"/><use xlink:href="#e" transform="matrix(1,0,0,1,1292,263.2) translate(0 79.60000000000002)"/><use xlink:href="#z" transform="matrix(1,0,0,1,1292,263.2) translate(10.95 79.60000000000002)"/><use xlink:href="#w" transform="matrix(1,0,0,1,1292,263.2) translate(155.5 79.60000000000002)"/><use xlink:href="#b" transform="matrix(1,0,0,1,1292,263.2) translate(0 101.20000000000002)"/><use xlink:href="#A" transform="matrix(1,0,0,1,1292,263.2) translate(15.5 101.20000000000002)"/><use xlink:href="#w" transform="matrix(1,0,0,1,1292,263.2) translate(136.20000000000002 101.20000000000002)"/><use xlink:href="#b" transform="matrix(1,0,0,1,1292,263.2) translate(0 122.80000000000001)"/><use xlink:href="#B" transform="matrix(1,0,0,1,1292,263.2) translate(15.5 122.80000000000001)"/><use xlink:href="#w" transform="matrix(1,0,0,1,1292,263.2) translate(168.10000000000002 122.80000000000001)"/><use xlink:href="#b" transform="matrix(1,0,0,1,1292,263.2) translate(0 144.4)"/><use xlink:href="#C" transform="matrix(1,0,0,1,1292,263.2) translate(15.5 144.4)"/><use xlink:href="#n" transform="matrix(1,0,0,1,1292,263.2) translate(158.05 144.4)"/><path d="M220 543h240v177H220z" stroke="#333" stroke-width="2" fill="#fff"/><path d="M220 580.6h240m-240 59.1h240" stroke="#333" stroke-width="2" fill="none"/><use xlink:href="#D" transform="matrix(1,0,0,1,228,551) translate(50.099999999999994 14.6)"/><use xlink:href="#E" transform="matrix(1,0,0,1,228,551) translate(114 14.6)"/><use xlink:href="#e" transform="matrix(1,0,0,1,232,647.7) translate(0 25.299999999999997)"/><use xlink:href="#F" transform="matrix(1,0,0,1,232,647.7) translate(10.95 25.299999999999997)"/><use xlink:href="#w" transform="matrix(1,0,0,1,232,647.7) translate(142.7 25.299999999999997)"/><use xlink:href="#e" transform="matrix(1,0,0,1,232,647.7) translate(0 46.9)"/><use xlink:href="#G" transform="matrix(1,0,0,1,232,647.7) translate(10.95 46.9)"/><use xlink:href="#n" transform="matrix(1,0,0,1,232,647.7) translate(200.54999999999995 46.9)"/><path d="M1390 178.5V151a12 12 0 0 0-12-12H495.8a12 12 0 0 0-12 12v127.5a12 12 0 0 1-12 12h-5" stroke="#333" fill="none"/><path d="M1390.5 179h-1v-.5h1z" stroke="#333" stroke-width=".05" fill="#333"/><path d="M444.8 290.5l21.5-12.73v25.46z" stroke="#333" fill="#fff"/><path d="M340 541.5V533a12 12 0 0 1 12-12h119.8a12 12 0 0 0 12-12V302.5a12 12 0 0 0-12-12h-5" stroke="#333" fill="none"/><path d="M340.5 542h-1v-.5h1z" stroke="#333" stroke-width=".05" fill="#333"/><path d="M444.8 290.5l21.5-12.73v25.46z" stroke="#333" fill="#fff"/><path d="M550 760h240v199H550z" stroke="#333" stroke-width="2" fill="#fff"/><path d="M550 797.6h240m-240 124h240" stroke="#333" stroke-width="2" fill="none"/><use xlink:href="#H" transform="matrix(1,0,0,1,558,768) translate(84.5 14.6)"/><use xlink:href="#b" transform="matrix(1,0,0,1,562,805.6) translate(0 14.899999999999993)"/><use xlink:href="#c" transform="matrix(1,0,0,1,562,805.6) translate(15.5 14.899999999999993)"/><use xlink:href="#d" transform="matrix(1,0,0,1,562,805.6) translate(39.45 14.899999999999993)"/><use xlink:href="#e" transform="matrix(1,0,0,1,562,805.6) translate(0 36.49999999999999)"/><use xlink:href="#I" transform="matrix(1,0,0,1,562,805.6) translate(10.95 36.49999999999999)"/><use xlink:href="#g" transform="matrix(1,0,0,1,562,805.6) translate(143.75 36.49999999999999)"/><use xlink:href="#e" transform="matrix(1,0,0,1,562,805.6) translate(0 58.099999999999994)"/><use xlink:href="#J" transform="matrix(1,0,0,1,562,805.6) translate(10.95 58.099999999999994)"/><use xlink:href="#d" transform="matrix(1,0,0,1,562,805.6) translate(88.9 58.099999999999994)"/><use xlink:href="#e" transform="matrix(1,0,0,1,562,805.6) translate(0 79.70000000000002)"/><use xlink:href="#k" transform="matrix(1,0,0,1,562,805.6) translate(10.95 79.70000000000002)"/><use xlink:href="#d" transform="matrix(1,0,0,1,562,805.6) translate(69.85000000000001 79.70000000000002)"/><use xlink:href="#e" transform="matrix(1,0,0,1,562,805.6) translate(0 101.30000000000001)"/><use xlink:href="#K" transform="matrix(1,0,0,1,562,805.6) translate(10.95 101.30000000000001)"/><use xlink:href="#L" transform="matrix(1,0,0,1,562,805.6) translate(110.95 101.30000000000001)"/><use xlink:href="#b" transform="matrix(1,0,0,1,562,929.6) translate(0 14.6)"/><use xlink:href="#M" transform="matrix(1,0,0,1,562,929.6) translate(15.5 14.6)"/><use xlink:href="#n" transform="matrix(1,0,0,1,562,929.6) translate(138.25 14.6)"/><path d="M670.5 758.5h-1l-.03-20.9h1zm-.05-42.5h-1l-.1-73.7h1zm-151.87-84v-1h32.27v1zm-27.2 0v-1h17.2v1z" stroke="#333" stroke-width=".05" fill="#333"/><path d="M491.7 631.5l-15.14 14.85-14.85-14.85 14.86-14.85z" fill="#333"/><path d="M492.42 631.5l-15.87 15.55L461 631.5l15.55-15.55zm-30 0l14.14 14.15L491 631.5l-14.44-14.15z" stroke="#333" stroke-width=".05" fill="#333"/><path d="M670.5 759h-1v-.5h1z" fill="#333"/><path d="M670.52 759.02h-1.04v-.56h1.04zm-1-.5v.46h.96v-.47z" stroke="#333" stroke-width=".05" fill="#333"/><use xlink:href="#N" transform="matrix(1,0,0,1,508.58453394660387,620.7) translate(0.004999999999999893 14.4)"/><use xlink:href="#O" transform="matrix(1,0,0,1,656.5,716.0125965869802) translate(0.005000000000000782 14.4)"/><g><use xlink:href="#P" transform="matrix(1,0,0,1,550.8496366449826,620.7) translate(0.005000000000002558 14.4)"/><use xlink:href="#Q" transform="matrix(1,0,0,1,550.8496366449826,620.7) translate(55.005 14.4)"/></g><path d="M220 959h240v199H220z" stroke="#333" stroke-width="2" fill="#fff"/><path d="M220 996.6h240m-240 124h240" stroke="#333" stroke-width="2" fill="none"/><g><use xlink:href="#R" transform="matrix(1,0,0,1,228,967) translate(7.1499999999999915 14.6)"/><use xlink:href="#S" transform="matrix(1,0,0,1,228,967) translate(112.95 14.6)"/><use xlink:href="#T" transform="matrix(1,0,0,1,228,967) translate(137.95 14.6)"/></g><g><use xlink:href="#b" transform="matrix(1,0,0,1,232,1004.6) translate(0 14.899999999999993)"/><use xlink:href="#c" transform="matrix(1,0,0,1,232,1004.6) translate(15.5 14.899999999999993)"/><use xlink:href="#d" transform="matrix(1,0,0,1,232,1004.6) translate(39.45 14.899999999999993)"/><use xlink:href="#e" transform="matrix(1,0,0,1,232,1004.6) translate(0 36.49999999999999)"/><use xlink:href="#U" transform="matrix(1,0,0,1,232,1004.6) translate(10.95 36.49999999999999)"/><use xlink:href="#g" transform="matrix(1,0,0,1,232,1004.6) translate(78.8 36.49999999999999)"/><use xlink:href="#e" transform="matrix(1,0,0,1,232,1004.6) translate(0 58.099999999999994)"/><use xlink:href="#J" transform="matrix(1,0,0,1,232,1004.6) translate(10.95 58.099999999999994)"/><use xlink:href="#d" transform="matrix(1,0,0,1,232,1004.6) translate(88.9 58.099999999999994)"/><use xlink:href="#e" transform="matrix(1,0,0,1,232,1004.6) translate(0 79.70000000000002)"/><use xlink:href="#V" transform="matrix(1,0,0,1,232,1004.6) translate(10.95 79.70000000000002)"/><use xlink:href="#g" transform="matrix(1,0,0,1,232,1004.6) translate(83.85000000000001 79.70000000000002)"/><use xlink:href="#e" transform="matrix(1,0,0,1,232,1004.6) translate(0 101.30000000000001)"/><use xlink:href="#K" transform="matrix(1,0,0,1,232,1004.6) translate(10.95 101.30000000000001)"/><use xlink:href="#L" transform="matrix(1,0,0,1,232,1004.6) translate(110.95 101.30000000000001)"/></g><g><use xlink:href="#b" transform="matrix(1,0,0,1,232,1128.6000000000001) translate(0 14.6)"/><use xlink:href="#G" transform="matrix(1,0,0,1,232,1128.6000000000001) translate(15.5 14.6)"/><use xlink:href="#n" transform="matrix(1,0,0,1,232,1128.6000000000001) translate(205.09999999999997 14.6)"/></g><path d="M340.5 957.5h-1v-11.37h1zm0-32.97h-1v-86.9h1zm0-108.5h-1v-33.38h1zm0-54.98h-1v-9.67h1z" stroke="#333" stroke-width=".05" fill="#333"/><path d="M354.85 736.56L340 751.7l-14.85-15.14L340 721.7z" fill="#333"/><path d="M355.55 736.55L340 752.42l-15.55-15.87L340 721zm-29.7 0L340 751l14.15-14.44L340 722.4z" stroke="#333" stroke-width=".05" fill="#333"/><path d="M340.5 958h-1v-.5h1z" fill="#333"/><path d="M340.52 958.02h-1.04v-.56h1.04zm-1-.5v.46h.96v-.47z" stroke="#333" stroke-width=".05" fill="#333"/><g><use xlink:href="#N" transform="matrix(1,0,0,1,335,761.0500808629236) translate(0.004999999999999893 14.4)"/></g><g><use xlink:href="#O" transform="matrix(1,0,0,1,326.5,924.5301200330291) translate(0.005000000000000782 14.4)"/></g><g><use xlink:href="#P" transform="matrix(1,0,0,1,279.6,816.0221809356935) translate(0.005000000000002558 14.4)"/><use xlink:href="#Q" transform="matrix(1,0,0,1,279.6,816.0221809356935) translate(55.005 14.4)"/></g><path d="M1260.5 927.5h-1l.03-54.22h1zm180-263.98l-.15 1.94-.46 1.9-.76 1.82-1.03 1.67-1.26 1.5-1.5 1.26-1.66 1.04-1.82.75-1.92.45-157.92.15-1.82.14-1.75.42-1.67.7-1.54.94-1.37 1.17-1.17 1.37-.95 1.54-.7 1.67-.4 1.73-.1 166h-1l.1-166.12.46-1.92.76-1.82 1.03-1.67 1.26-1.5 1.5-1.26 1.66-1.04 1.82-.75 1.9-.45 1.94-.15 157.84-.15 1.73-.4 1.67-.7 1.54-.95 1.37-1.17 1.17-1.37.95-1.54.7-1.67.4-1.75.15-1.82v-39.74h1zm0-61.38h-1v-61.3h1zm0-82.9h-1v-65.87h1z" stroke="#333" stroke-width=".05" fill="#333"/><path d="M1454.85 438.56L1440 453.7l-14.85-15.14L1440 423.7z" fill="#333"/><path d="M1455.55 438.55L1440 454.42l-15.55-15.87L1440 423zm-29.7 0L1440 453l14.15-14.44L1440 424.4z" stroke="#333" stroke-width=".05" fill="#333"/><path d="M1260.5 928h-1v-.5h1z" fill="#333"/><path d="M1260.53 928.02h-1.06v-.56h1.06zm-1-.5v.46h.94v-.47z" stroke="#333" stroke-width=".05" fill="#333"/><g><use xlink:href="#N" transform="matrix(1,0,0,1,1435,519.2442964440525) translate(0.004999999999999893 14.4)"/></g><g><use xlink:href="#O" transform="matrix(1,0,0,1,1246.5,851.6773511503162) translate(0.005000000000000782 14.4)"/></g><g><use xlink:href="#P" transform="matrix(1,0,0,1,1392.05,602.1351922642052) translate(0.005000000000002558 14.4)"/><use xlink:href="#W" transform="matrix(1,0,0,1,1392.05,602.1351922642052) translate(55.005 14.4)"/></g><path d="M1158.5 1039v1l-48.88-.02v-1zm-58.88-.02v1l-194.88-.06v-1zm-315.68-.1v1l-99.6-.03v-1zm-113.44-11.4l.14 1.82.42 1.75.7 1.67.94 1.54 1.17 1.37.47.4v1.32l-1.18-1-1.27-1.5-1.04-1.67-.75-1.82-.45-1.9-.15-1.94v-37.14h1z" stroke="#333" stroke-width=".05" fill="#333"/><path d="M684.85 975.56L670 990.7l-14.85-15.14L670 960.7z" fill="#333"/><path d="M685.55 975.55L670 991.42l-15.55-15.87L670 960zm-29.7 0L670 990l14.15-14.44L670 961.4z" stroke="#333" stroke-width=".05" fill="#333"/><path d="M1159 1040h-.5v-1h.5z" fill="#333"/><path d="M1159.03 1040.03h-.57v-1.06h.57zm-.52-1v.94h.47v-.94z" stroke="#333" stroke-width=".05" fill="#333"/><g><use xlink:href="#N" transform="matrix(1,0,0,1,674.3389525962683,1028.7) translate(0.004999999999999893 14.4)"/></g><g><use xlink:href="#N" transform="matrix(1,0,0,1,1099.620984129861,1028.7) translate(0.004999999999999893 14.4)"/></g><g><use xlink:href="#P" transform="matrix(1,0,0,1,783.9392821178978,1028.7) translate(0.005000000000002558 14.4)"/><use xlink:href="#Q" transform="matrix(1,0,0,1,783.9392821178978,1028.7) translate(55.005 14.4)"/></g><path d="M1260.5 1151.5l-.15 37.44-.46 1.92-.76 1.82-1.03 1.67-1.26 1.5-1.5 1.26-1.66 1.04-1.82.75-1.9.45-1.94.15h-31.44v-1h31.4l1.82-.14 1.75-.42 1.67-.7 1.54-.94 1.37-1.17 1.17-1.37.95-1.54.7-1.67.4-1.73.15-37.32zm-53.92 47v1l-396.1-.06v-1zm-516.9-.07v1l-227.16-.03v-1zm-349.07-7.63l.35 1.4.55 1.32.74 1.22.93 1.1 1.1.92 1.2.74 1.34.55 1.38.33 104.34.02v1l-104.46-.02-1.56-.37-1.47-.6-1.36-.83-1.2-1.03-1.04-1.2-.83-1.37-.6-1.47-.38-1.54-.12-1.55 1-.06z" stroke="#333" stroke-width=".05" fill="#333"/><path d="M354.85 1174.56L340 1189.7l-14.85-15.14L340 1159.7z" fill="#333"/><path d="M355.55 1174.55L340 1190.42l-15.55-15.87L340 1159zm-29.7 0L340 1189l14.15-14.44L340 1160.4z" stroke="#333" stroke-width=".05" fill="#333"/><path d="M1260.5 1151.5h-1v-.5h1z" fill="#333"/><path d="M1260.53 1151.54h-1.06v-.57h1.06zm-1-.5v.45h.94v-.47z" stroke="#333" stroke-width=".05" fill="#333"/><g><use xlink:href="#N" transform="matrix(1,0,0,1,452.519198270956,1188.2) translate(0.004999999999999893 14.4)"/></g><g><use xlink:href="#N" transform="matrix(1,0,0,1,1206.5812700138958,1188.2) translate(0.004999999999999893 14.4)"/></g><g><use xlink:href="#P" transform="matrix(1,0,0,1,689.6791492961144,1188.2) translate(0.005000000000002558 14.4)"/><use xlink:href="#Q" transform="matrix(1,0,0,1,689.6791492961144,1188.2) translate(55.005 14.4)"/></g><path d="M1102.5 438.46l-21 .04v-1l21-.04zm78-12.44l-.15 1.94-.46 1.9-.76 1.82-1.03 1.67-1.26 1.5-1.5 1.26-1.66 1.04-1.82.75-1.92.45-57.44.1v-1l57.32-.1 1.73-.4 1.67-.7 1.54-.95 1.37-1.17 1.17-1.37.95-1.54.7-1.67.4-1.75.15-1.82.04-16.68h1zm65.04-66.52h-53.52l-1.82.14-1.75.42-1.67.7-1.54.94-1.37 1.17-1.17 1.37-.95 1.54-.7 1.67-.4 1.73-.05 18.52h-1l.05-18.64.46-1.92.76-1.82 1.03-1.67 1.26-1.5 1.5-1.26 1.66-1.04 1.82-.75 1.9-.45 1.94-.15h53.56z" stroke="#333" stroke-width=".05" fill="#333"/><path d="M1278.3 359l-14.86 14.85-7.9-7.74v-14.2l7.9-7.75z" fill="#333"/><path d="M1279 359l-15.55 15.55-7.9-7.74v-1.4l7.9 7.75 14.14-14.15-14.16-14.15-7.9 7.74v-1.4l7.9-7.75z" stroke="#333" stroke-width=".05" fill="#333"/><path d="M1081.5 438.5h-.5v-1h.5z" fill="#333"/><path d="M1081.54 438.52h-.57v-1.04h.57zm-.5-1v.96h.45v-.96z" stroke="#333" stroke-width=".05" fill="#333"/><g><use xlink:href="#N" transform="matrix(1,0,0,1,1245.5433040486248,348.2) translate(0.004999999999999893 14.4)"/></g><g><use xlink:href="#N" transform="matrix(1,0,0,1,1102.4960200457845,427.2) translate(0.004999999999999893 14.4)"/></g><g><use xlink:href="#X" transform="matrix(1,0,0,1,1134.075,387.7) translate(0.005000000000002558 14.4)"/><use xlink:href="#W" transform="matrix(1,0,0,1,1134.075,387.7) translate(50.955000000000005 14.4)"/></g><path d="M840 360h240v156H840z" stroke="#333" stroke-width="2" fill="#fff"/><path d="M840 397.6h240m-240 59.1h240" stroke="#333" stroke-width="2" fill="none"/><g><use xlink:href="#Y" transform="matrix(1,0,0,1,848,368) translate(82.075 14.6)"/></g><g><use xlink:href="#b" transform="matrix(1,0,0,1,852,464.70000000000005) translate(0 25.6)"/><use xlink:href="#Z" transform="matrix(1,0,0,1,852,464.70000000000005) translate(15.5 25.6)"/><use xlink:href="#n" transform="matrix(1,0,0,1,852,464.70000000000005) translate(200.15 25.6)"/></g><path d="M960 358.5v-56a12 12 0 0 0-12-12H466.8" stroke="#333" fill="none"/><path d="M960.5 359h-1v-.5h1z" stroke="#333" stroke-width=".05" fill="#333"/><path d="M444.8 290.5l21.5-12.73v25.46z" stroke="#333" fill="#fff"/><path d="M179.65 1239.82l.4 1.73.7 1.67.95 1.54 1.17 1.37 1.37 1.17 1.54.95 1.67.7 1.75.4 1.82.15 947.27-.1v1l-947.32.1-1.94-.15-1.9-.46-1.82-.76-1.67-1.03-1.5-1.26-1.26-1.5-1.04-1.66-.75-1.82-.45-1.92-.14-573.56h1zm1361.85-1.8l-.15 1.94-.46 1.9-.76 1.82-1.03 1.67-1.26 1.5-1.5 1.26-1.66 1.04-1.82.75-1.92.45-296.75.03v-1l296.62-.03 1.73-.4 1.67-.7 1.54-.95 1.37-1.17 1.17-1.37.95-1.54.7-1.67.4-1.75.15-1.82-.1-852.38h1zM218.5 632l-29.32.15-1.73.4-1.67.7-1.54.95-1.37 1.17-1.17 1.37-.95 1.54-.7 1.67-.4 1.75-.15 1.82v1.26h-1v-1.3l.15-1.94.46-1.9.76-1.82 1.03-1.67 1.26-1.5 1.5-1.26 1.66-1.04 1.82-.75 1.92-.45 29.44-.15zm1314.46-331.38l1.54.37 1.47.6 1.36.83 1.2 1.03 1.04 1.2.83 1.37.6 1.47.38 1.56V364h-1v-54.82l-.33-1.37-.55-1.32-.74-1.22-.93-1.1-1.1-.92-1.2-.74-1.34-.55-1.4-.34-1.46-.1.07-1z" stroke="#333" stroke-width=".05" fill="#333"/><path d="M1531.7 301l-15.14 14.85L1501.7 301l14.86-14.85z" fill="#333"/><path d="M1532.42 301l-15.87 15.55L1501 301l15.55-15.55zm-30 0l14.14 14.15L1531 301l-14.44-14.15z" stroke="#333" stroke-width=".05" fill="#333"/><path d="M219 632h-.5v-1h.5z" fill="#333"/><path d="M219.03 632.02h-.57V631h.56zm-.52-1v.96h.47V631z" stroke="#333" stroke-width=".05" fill="#333"/><g><use xlink:href="#N" transform="matrix(1,0,0,1,1536,363.9963288400725) translate(0.004999999999999893 14.4)"/></g><g><use xlink:href="#O" transform="matrix(1,0,0,1,165.5,644.7822828381998) translate(0.005000000000000782 14.4)"/></g><g><use xlink:href="#P" transform="matrix(1,0,0,1,1138.2869049537142,1239.2) translate(0.005000000000002558 14.4)"/><use xlink:href="#W" transform="matrix(1,0,0,1,1138.2869049537142,1239.2) translate(55.005 14.4)"/></g><path d="M808.47 766.94l-16.97.04v-1l16.97-.04zm57.36-12.44l-.15 1.93-.46 1.9-.75 1.82-1.03 1.68-1.27 1.5-1.5 1.26-1.66 1.02-1.8.75-1.93.46-19.8.05v-1l19.68-.05 1.73-.42 1.67-.68 1.54-.94 1.36-1.17 1.17-1.36.95-1.54.7-1.67.4-1.75.15-1.82v-82.08h1zm0-103.72h-1V578.4h1zm0-93.98h-1v-9.42h1z" stroke="#333" stroke-width=".05" fill="#333"/><path d="M880.18 532.56l-14.85 15.15-14.85-15.14 14.85-14.85z" fill="#333"/><path d="M880.88 532.55l-15.55 15.87-15.55-15.87L865.33 517zm-29.7 0L865.34 547l14.15-14.44-14.15-14.15z" stroke="#333" stroke-width=".05" fill="#333"/><path d="M791.5 766.98h-.5v-1h.5z" fill="#333"/><path d="M791.54 767h-.56v-1.05h.56zm-.5-1v.95h.45V766z" stroke="#333" stroke-width=".05" fill="#333"/><g><use xlink:href="#N" transform="matrix(1,0,0,1,860.3309113901283,556.8013684364387) translate(0.004999999999999893 14.4)"/></g><g><use xlink:href="#O" transform="matrix(1,0,0,1,808.4734923346161,755.6783762637616) translate(0.005000000000000782 14.4)"/></g><g><use xlink:href="#P" transform="matrix(1,0,0,1,801.3809113901283,650.7831435728607) translate(0.005000000000002558 14.4)"/><use xlink:href="#aa" transform="matrix(1,0,0,1,801.3809113901283,650.7831435728607) translate(55.005 14.4)"/></g><path d="M558.68 1128.6l-97.18.04v-1l97.18-.03zm454.02-93.74l-3.14 1.03-1.63 2.22-.22 1.34.9 2.68 2.22 1.63 1.88.3v72.1l-.15 1.92-.46 1.9-.76 1.8-1.03 1.68-1.26 1.5-1.5 1.27-1.66 1.02-1.82.76-1.92.46-416.46.1v-1l416.34-.1 1.73-.43 1.67-.7 1.54-.93 1.37-1.17 1.17-1.38.95-1.54.7-1.67.4-1.77.15-1.8v-71.2l-1.28-.2-2.68-1.97-1.05-3.22.28-1.82 1.96-2.68 2.76-.9V790.67h1zm0-265.8h-1V599.9h1zm0-190.77h-1v-30.92h1z" stroke="#333" stroke-width=".05" fill="#333"/><path d="M1027.05 532.56l-14.85 15.15-14.85-15.14 14.85-14.85z" fill="#333"/><path d="M1027.75 532.55l-15.55 15.87-15.55-15.87L1012.2 517zm-29.7 0L1012.2 547l14.15-14.44-14.15-14.15z" stroke="#333" stroke-width=".05" fill="#333"/><path d="M461.5 1128.64h-.5v-1h.5z" fill="#333"/><path d="M461.54 1128.66h-.56v-1.05h.56zm-.52-1v.95h.47v-.94z" stroke="#333" stroke-width=".05" fill="#333"/><g><use xlink:href="#N" transform="matrix(1,0,0,1,1007.2000000000002,578.2878409439116) translate(0.004999999999999893 14.4)"/></g><g><use xlink:href="#O" transform="matrix(1,0,0,1,558.6814751536766,1117.3356475557962) translate(0.005000000000000782 14.4)"/></g><g><use xlink:href="#P" transform="matrix(1,0,0,1,948.2500000000001,769.0681593865477) translate(0.005000000000002558 14.4)"/><use xlink:href="#aa" transform="matrix(1,0,0,1,948.2500000000001,769.0681593865477) translate(55.005 14.4)"/></g><defs><path fill="#333" d="M205 0l-28-72H64L36 0H1l101-248h38L239 0h-34zm-38-99l-47-123c-12 45-31 82-46 123h93" id="ab"/><path fill="#333" d="M114-163C36-179 61-72 57 0H25l-1-190h30c1 12-1 29 2 39 6-27 23-49 58-41v29" id="ac"/><path fill="#333" d="M59-47c-2 24 18 29 38 22v24C64 9 27 4 27-40v-127H5v-23h24l9-43h21v43h35v23H59v120" id="ad"/><path fill="#333" d="M34 0v-190h32V0H34zM24-211c8-23 27-35 38-54h36v5l-58 49H24" id="ae"/><path fill="#333" d="M96-169c-40 0-48 33-48 73s9 75 48 75c24 0 41-14 43-38l32 2c-6 37-31 61-74 61-59 0-76-41-82-99-10-93 101-131 147-64 4 7 5 14 7 22l-32 3c-4-21-16-35-41-35" id="af"/><path fill="#333" d="M84 4C-5 8 30-112 23-190h32v120c0 31 7 50 39 49 72-2 45-101 50-169h31l1 190h-30c-1-10 1-25-2-33-11 22-28 36-60 37" id="ag"/><path fill="#333" d="M24 0v-261h32V0H24" id="ah"/><path fill="#333" d="M100-194c62-1 85 37 85 99 1 63-27 99-86 99S16-35 15-95c0-66 28-99 85-99zM99-20c44 1 53-31 53-75 0-43-8-75-51-75s-53 32-53 75 10 74 51 75" id="ai"/><path fill="#333" d="M135-143c-3-34-86-38-87 0 15 53 115 12 119 90S17 21 10-45l28-5c4 36 97 45 98 0-10-56-113-15-118-90-4-57 82-63 122-42 12 7 21 19 24 35" id="aj"/><g id="a"><use transform="matrix(0.05,0,0,0.05,0,0)" xlink:href="#ab"/><use transform="matrix(0.05,0,0,0.05,12,0)" xlink:href="#ac"/><use transform="matrix(0.05,0,0,0.05,17.95,0)" xlink:href="#ad"/><use transform="matrix(0.05,0,0,0.05,22.95,0)" xlink:href="#ae"/><use transform="matrix(0.05,0,0,0.05,27.950000000000003,0)" xlink:href="#af"/><use transform="matrix(0.05,0,0,0.05,36.95,0)" xlink:href="#ag"/><use transform="matrix(0.05,0,0,0.05,46.95,0)" xlink:href="#ah"/><use transform="matrix(0.05,0,0,0.05,50.900000000000006,0)" xlink:href="#ai"/><use transform="matrix(0.05,0,0,0.05,60.900000000000006,0)" xlink:href="#aj"/></g><path fill="#333" d="M118-107v75H92v-75H18v-26h74v-75h26v75h74v26h-74" id="ak"/><use transform="matrix(0.05,0,0,0.05,0,0)" xlink:href="#ak" id="b"/><path fill="#333" d="M24-231v-30h32v30H24zM24 0v-190h32V0H24" id="al"/><path fill="#333" d="M85-194c31 0 48 13 60 33l-1-100h32l1 261h-30c-2-10 0-23-3-31C134-8 116 4 85 4 32 4 16-35 15-94c0-66 23-100 70-100zm9 24c-40 0-46 34-46 75 0 40 6 74 45 74 42 0 51-32 51-76 0-42-9-74-50-73" id="am"/><path fill="#333" d="M33-154v-36h34v36H33zM33 0v-36h34V0H33" id="an"/><g id="c"><use transform="matrix(0.05,0,0,0.05,0,0)" xlink:href="#al"/><use transform="matrix(0.05,0,0,0.05,3.95,0)" xlink:href="#am"/><use transform="matrix(0.05,0,0,0.05,13.949999999999998,0)" xlink:href="#an"/></g><path fill="#333" d="M117-194c89-4 53 116 60 194h-32v-121c0-31-8-49-39-48C34-167 62-67 57 0H25l-1-190h30c1 10-1 24 2 32 11-22 29-35 61-36" id="ao"/><g id="d"><use transform="matrix(0.05,0,0,0.05,0,0)" xlink:href="#al"/><use transform="matrix(0.05,0,0,0.05,3.95,0)" xlink:href="#ao"/><use transform="matrix(0.05,0,0,0.05,13.949999999999998,0)" xlink:href="#ad"/></g><path fill="#333" d="M16-82v-28h88v28H16" id="ap"/><use transform="matrix(0.05,0,0,0.05,0,0)" xlink:href="#ap" id="e"/><path fill="#333" d="M141-36C126-15 110 5 73 4 37 3 15-17 15-53c-1-64 63-63 125-63 3-35-9-54-41-54-24 1-41 7-42 31l-33-3c5-37 33-52 76-52 45 0 72 20 72 64v82c-1 20 7 32 28 27v20c-31 9-61-2-59-35zM48-53c0 20 12 33 32 33 41-3 63-29 60-74-43 2-92-5-92 41" id="aq"/><path fill="#333" d="M100-194c63 0 86 42 84 106H49c0 40 14 67 53 68 26 1 43-12 49-29l28 8c-11 28-37 45-77 45C44 4 14-33 15-96c1-61 26-98 85-98zm52 81c6-60-76-77-97-28-3 7-6 17-6 28h103" id="ar"/><path fill="#333" d="M177-190C167-65 218 103 67 71c-23-6-38-20-44-43l32-5c15 47 100 32 89-28v-30C133-14 115 1 83 1 29 1 15-40 15-95c0-56 16-97 71-98 29-1 48 16 59 35 1-10 0-23 2-32h30zM94-22c36 0 50-32 50-73 0-42-14-75-50-75-39 0-46 34-46 75s6 73 46 73" id="as"/><g id="f"><use transform="matrix(0.05,0,0,0.05,0,0)" xlink:href="#af"/><use transform="matrix(0.05,0,0,0.05,9,0)" xlink:href="#aq"/><use transform="matrix(0.05,0,0,0.05,19,0)" xlink:href="#ad"/><use transform="matrix(0.05,0,0,0.05,24,0)" xlink:href="#ar"/><use transform="matrix(0.05,0,0,0.05,34,0)" xlink:href="#as"/><use transform="matrix(0.05,0,0,0.05,44,0)" xlink:href="#ai"/><use transform="matrix(0.05,0,0,0.05,54,0)" xlink:href="#ac"/><use transform="matrix(0.05,0,0,0.05,59.95,0)" xlink:href="#al"/><use transform="matrix(0.05,0,0,0.05,63.900000000000006,0)" xlink:href="#aq"/><use transform="matrix(0.05,0,0,0.05,73.9,0)" xlink:href="#an"/></g><g id="g"><use transform="matrix(0.05,0,0,0.05,0,0)" xlink:href="#aj"/><use transform="matrix(0.05,0,0,0.05,9,0)" xlink:href="#ad"/><use transform="matrix(0.05,0,0,0.05,14,0)" xlink:href="#ac"/><use transform="matrix(0.05,0,0,0.05,19.95,0)" xlink:href="#al"/><use transform="matrix(0.05,0,0,0.05,23.9,0)" xlink:href="#ao"/><use transform="matrix(0.05,0,0,0.05,33.9,0)" xlink:href="#as"/></g><path fill="#333" d="M210-169c-67 3-38 105-44 169h-31v-121c0-29-5-50-35-48C34-165 62-65 56 0H25l-1-190h30c1 10-1 24 2 32 10-44 99-50 107 0 11-21 27-35 58-36 85-2 47 119 55 194h-31v-121c0-29-5-49-35-48" id="at"/><g id="h"><use transform="matrix(0.05,0,0,0.05,0,0)" xlink:href="#at"/><use transform="matrix(0.05,0,0,0.05,14.950000000000001,0)" xlink:href="#aq"/><use transform="matrix(0.05,0,0,0.05,24.950000000000003,0)" xlink:href="#ac"/><use transform="matrix(0.05,0,0,0.05,30.900000000000002,0)" xlink:href="#af"/><use transform="matrix(0.05,0,0,0.05,39.900000000000006,0)" xlink:href="#aq"/><use transform="matrix(0.05,0,0,0.05,49.900000000000006,0)" xlink:href="#an"/></g><g id="i"><use transform="matrix(0.05,0,0,0.05,0,0)" xlink:href="#af"/><use transform="matrix(0.05,0,0,0.05,9,0)" xlink:href="#ai"/><use transform="matrix(0.05,0,0,0.05,19,0)" xlink:href="#ah"/><use transform="matrix(0.05,0,0,0.05,22.95,0)" xlink:href="#ai"/><use transform="matrix(0.05,0,0,0.05,32.95,0)" xlink:href="#ac"/><use transform="matrix(0.05,0,0,0.05,38.900000000000006,0)" xlink:href="#an"/></g><path fill="#333" d="M115-194c55 1 70 41 70 98S169 2 115 4C84 4 66-9 55-30l1 105H24l-1-265h31l2 30c10-21 28-34 59-34zm-8 174c40 0 45-34 45-75s-6-73-45-74c-42 0-51 32-51 76 0 43 10 73 51 73" id="au"/><path fill="#333" d="M108 0H70L1-190h34L89-25l56-165h34" id="av"/><g id="j"><use transform="matrix(0.05,0,0,0.05,0,0)" xlink:href="#au"/><use transform="matrix(0.05,0,0,0.05,10,0)" xlink:href="#ac"/><use transform="matrix(0.05,0,0,0.05,15.949999999999998,0)" xlink:href="#ai"/><use transform="matrix(0.05,0,0,0.05,25.950000000000003,0)" xlink:href="#av"/><use transform="matrix(0.05,0,0,0.05,34.95,0)" xlink:href="#ar"/><use transform="matrix(0.05,0,0,0.05,44.95,0)" xlink:href="#ar"/><use transform="matrix(0.05,0,0,0.05,54.95,0)" xlink:href="#am"/><use transform="matrix(0.05,0,0,0.05,64.95,0)" xlink:href="#ai"/><use transform="matrix(0.05,0,0,0.05,74.95,0)" xlink:href="#ac"/><use transform="matrix(0.05,0,0,0.05,80.9,0)" xlink:href="#an"/></g><g id="k"><use transform="matrix(0.05,0,0,0.05,0,0)" xlink:href="#au"/><use transform="matrix(0.05,0,0,0.05,10,0)" xlink:href="#ac"/><use transform="matrix(0.05,0,0,0.05,15.949999999999998,0)" xlink:href="#ar"/><use transform="matrix(0.05,0,0,0.05,25.950000000000003,0)" xlink:href="#af"/><use transform="matrix(0.05,0,0,0.05,34.95,0)" xlink:href="#al"/><use transform="matrix(0.05,0,0,0.05,38.900000000000006,0)" xlink:href="#ai"/><use transform="matrix(0.05,0,0,0.05,48.900000000000006,0)" xlink:href="#an"/></g><g id="l"><use transform="matrix(0.05,0,0,0.05,0,0)" xlink:href="#al"/><use transform="matrix(0.05,0,0,0.05,3.95,0)" xlink:href="#ao"/><use transform="matrix(0.05,0,0,0.05,13.949999999999998,0)" xlink:href="#ad"/></g><path fill="#333" d="M87 75C49 33 22-17 22-94c0-76 28-126 65-167h31c-38 41-64 92-64 168S80 34 118 75H87" id="aw"/><g id="m"><use transform="matrix(0.05,0,0,0.05,0,0)" xlink:href="#af"/><use transform="matrix(0.05,0,0,0.05,9,0)" xlink:href="#ac"/><use transform="matrix(0.05,0,0,0.05,14.949999999999998,0)" xlink:href="#ar"/><use transform="matrix(0.05,0,0,0.05,24.95,0)" xlink:href="#aq"/><use transform="matrix(0.05,0,0,0.05,34.95,0)" xlink:href="#ac"/><use transform="matrix(0.05,0,0,0.05,40.900000000000006,0)" xlink:href="#ab"/><use transform="matrix(0.05,0,0,0.05,52.900000000000006,0)" xlink:href="#ac"/><use transform="matrix(0.05,0,0,0.05,58.85,0)" xlink:href="#ad"/><use transform="matrix(0.05,0,0,0.05,63.85,0)" xlink:href="#al"/><use transform="matrix(0.05,0,0,0.05,67.80000000000001,0)" xlink:href="#af"/><use transform="matrix(0.05,0,0,0.05,76.80000000000001,0)" xlink:href="#ag"/><use transform="matrix(0.05,0,0,0.05,86.80000000000001,0)" xlink:href="#ah"/><use transform="matrix(0.05,0,0,0.05,90.75000000000001,0)" xlink:href="#ai"/><use transform="matrix(0.05,0,0,0.05,100.75000000000001,0)" xlink:href="#aw"/></g><path fill="#333" d="M33-261c38 41 65 92 65 168S71 34 33 75H2C39 34 66-17 66-93S39-220 2-261h31" id="ax"/><use transform="matrix(0.05,0,0,0.05,0,0)" xlink:href="#ax" id="n"/><path fill="#333" d="M62-99C39-31 123 0 170-40s38-139 58-208h34C234-144 253 4 115 4 49 4 18-43 31-112l26-136h34" id="ay"/><path fill="#333" d="M55-144c13 50 104 24 104 88C159 21 15 23 1-39l26-10c6 40 102 42 102-4-13-50-104-23-104-87 0-71 143-71 148-8l-29 4c-5-35-85-37-89 0" id="az"/><path fill="#333" d="M67 3c-93-2-31-127-26-193h32L48-50c-3 39 53 32 70 12 30-34 30-101 43-152h32L157 0h-30c1-10 6-24 4-33-14 20-29 37-64 36" id="aA"/><path fill="#333" d="M165-48c-4 18 1 34 23 27l-3 20c-29 8-62 0-52-35h-2C116-14 99 4 63 4 30 4 8-16 8-49c0-68 71-67 138-67 10-26 0-56-31-54-26 1-42 9-47 31l-32-5c8-67 160-71 144 15-5 28-9 54-15 81zM42-50c3 52 80 24 89-6 7-12 7-24 11-38-47 1-103-4-100 44" id="aB"/><path fill="#333" d="M66-151c12-25 30-51 66-40l-6 26C45-176 58-65 38 0H6l36-190h30" id="aC"/><path fill="#333" d="M50-231l6-30h32l-6 30H50zM6 0l37-190h31L37 0H6" id="aD"/><path fill="#333" d="M30-147c31-64 166-65 159 27C183-49 158 1 86 4 9 8 1-88 30-147zM88-20c53 0 68-48 68-100 0-31-11-51-44-50-52 1-68 46-68 97 0 32 13 53 44 53" id="aE"/><g id="o"><use transform="matrix(0.05,0,0,0.05,0,0)" xlink:href="#ay"/><use transform="matrix(0.05,0,0,0.05,12.950000000000001,0)" xlink:href="#az"/><use transform="matrix(0.05,0,0,0.05,21.950000000000003,0)" xlink:href="#aA"/><use transform="matrix(0.05,0,0,0.05,31.950000000000003,0)" xlink:href="#aB"/><use transform="matrix(0.05,0,0,0.05,41.95,0)" xlink:href="#aC"/><use transform="matrix(0.05,0,0,0.05,47.900000000000006,0)" xlink:href="#aD"/><use transform="matrix(0.05,0,0,0.05,51.85,0)" xlink:href="#aE"/><use transform="matrix(0.05,0,0,0.05,61.85,0)" xlink:href="#az"/></g><path fill="#333" d="M115-194c53 0 69 39 70 98 0 66-23 100-70 100C84 3 66-7 56-30L54 0H23l1-261h32v101c10-23 28-34 59-34zm-8 174c40 0 45-34 45-75 0-40-5-75-45-74-42 0-51 32-51 76 0 43 10 73 51 73" id="aF"/><g id="p"><use transform="matrix(0.05,0,0,0.05,0,0)" xlink:href="#ao"/><use transform="matrix(0.05,0,0,0.05,10,0)" xlink:href="#ai"/><use transform="matrix(0.05,0,0,0.05,20,0)" xlink:href="#at"/><use transform="matrix(0.05,0,0,0.05,34.95,0)" xlink:href="#aF"/><use transform="matrix(0.05,0,0,0.05,44.95,0)" xlink:href="#ac"/><use transform="matrix(0.05,0,0,0.05,50.900000000000006,0)" xlink:href="#ar"/><use transform="matrix(0.05,0,0,0.05,60.900000000000006,0)" xlink:href="#an"/></g><g id="q"><use transform="matrix(0.05,0,0,0.05,0,0)" xlink:href="#aq"/><use transform="matrix(0.05,0,0,0.05,10,0)" xlink:href="#au"/><use transform="matrix(0.05,0,0,0.05,20,0)" xlink:href="#ar"/><use transform="matrix(0.05,0,0,0.05,30,0)" xlink:href="#ah"/><use transform="matrix(0.05,0,0,0.05,33.95,0)" xlink:href="#ah"/><use transform="matrix(0.05,0,0,0.05,37.900000000000006,0)" xlink:href="#al"/><use transform="matrix(0.05,0,0,0.05,41.85000000000001,0)" xlink:href="#am"/><use transform="matrix(0.05,0,0,0.05,51.85,0)" xlink:href="#ai"/><use transform="matrix(0.05,0,0,0.05,61.85,0)" xlink:href="#aj"/><use transform="matrix(0.05,0,0,0.05,70.85000000000001,0)" xlink:href="#an"/></g><path fill="#333" d="M30 0v-248h187v28H63v79h144v27H63v87h162V0H30" id="aG"/><g id="r"><use transform="matrix(0.05,0,0,0.05,0,0)" xlink:href="#ao"/><use transform="matrix(0.05,0,0,0.05,10,0)" xlink:href="#ag"/><use transform="matrix(0.05,0,0,0.05,20,0)" xlink:href="#at"/><use transform="matrix(0.05,0,0,0.05,34.95,0)" xlink:href="#aG"/><use transform="matrix(0.05,0,0,0.05,46.95,0)" xlink:href="#at"/><use transform="matrix(0.05,0,0,0.05,61.900000000000006,0)" xlink:href="#au"/><use transform="matrix(0.05,0,0,0.05,71.9,0)" xlink:href="#ah"/><use transform="matrix(0.05,0,0,0.05,75.85000000000001,0)" xlink:href="#ar"/><use transform="matrix(0.05,0,0,0.05,85.85000000000001,0)" xlink:href="#aq"/><use transform="matrix(0.05,0,0,0.05,95.85000000000001,0)" xlink:href="#am"/><use transform="matrix(0.05,0,0,0.05,105.85000000000001,0)" xlink:href="#ai"/><use transform="matrix(0.05,0,0,0.05,115.85000000000001,0)" xlink:href="#an"/></g><g id="s"><use transform="matrix(0.05,0,0,0.05,0,0)" xlink:href="#ac"/><use transform="matrix(0.05,0,0,0.05,5.95,0)" xlink:href="#ai"/><use transform="matrix(0.05,0,0,0.05,15.949999999999998,0)" xlink:href="#ah"/><use transform="matrix(0.05,0,0,0.05,19.9,0)" xlink:href="#an"/></g><path fill="#333" d="M30-248c87 1 191-15 191 75 0 78-77 80-158 76V0H30v-248zm33 125c57 0 124 11 124-50 0-59-68-47-124-48v98" id="aH"/><path fill="#333" d="M33 0v-248h34V0H33" id="aI"/><path fill="#333" d="M190 0L58-211 59 0H30v-248h39L202-35l-2-213h31V0h-41" id="aJ"/><g id="t"><use transform="matrix(0.05,0,0,0.05,0,0)" xlink:href="#aH"/><use transform="matrix(0.05,0,0,0.05,12,0)" xlink:href="#aI"/><use transform="matrix(0.05,0,0,0.05,17,0)" xlink:href="#aJ"/><use transform="matrix(0.05,0,0,0.05,29.950000000000003,0)" xlink:href="#an"/></g><g id="u"><use transform="matrix(0.05,0,0,0.05,0,0)" xlink:href="#aq"/><use transform="matrix(0.05,0,0,0.05,10,0)" xlink:href="#am"/><use transform="matrix(0.05,0,0,0.05,20,0)" xlink:href="#at"/><use transform="matrix(0.05,0,0,0.05,34.95,0)" xlink:href="#al"/><use transform="matrix(0.05,0,0,0.05,38.900000000000006,0)" xlink:href="#ao"/><use transform="matrix(0.05,0,0,0.05,48.900000000000006,0)" xlink:href="#al"/><use transform="matrix(0.05,0,0,0.05,52.85,0)" xlink:href="#aj"/><use transform="matrix(0.05,0,0,0.05,61.85,0)" xlink:href="#ad"/><use transform="matrix(0.05,0,0,0.05,66.85000000000001,0)" xlink:href="#ac"/><use transform="matrix(0.05,0,0,0.05,72.80000000000001,0)" xlink:href="#aq"/><use transform="matrix(0.05,0,0,0.05,82.80000000000001,0)" xlink:href="#am"/><use transform="matrix(0.05,0,0,0.05,92.80000000000001,0)" xlink:href="#ai"/><use transform="matrix(0.05,0,0,0.05,102.80000000000001,0)" xlink:href="#ac"/><use transform="matrix(0.05,0,0,0.05,108.75,0)" xlink:href="#ar"/><use transform="matrix(0.05,0,0,0.05,118.75,0)" xlink:href="#aj"/></g><path fill="#333" d="M232-93c-1 65-40 97-104 97C67 4 28-28 28-90v-158h33c8 89-33 224 67 224 102 0 64-133 71-224h33v155" id="aK"/><g id="v"><use transform="matrix(0.05,0,0,0.05,0,0)" xlink:href="#af"/><use transform="matrix(0.05,0,0,0.05,9,0)" xlink:href="#ac"/><use transform="matrix(0.05,0,0,0.05,14.949999999999998,0)" xlink:href="#ar"/><use transform="matrix(0.05,0,0,0.05,24.95,0)" xlink:href="#aq"/><use transform="matrix(0.05,0,0,0.05,34.95,0)" xlink:href="#ac"/><use transform="matrix(0.05,0,0,0.05,40.900000000000006,0)" xlink:href="#aK"/><use transform="matrix(0.05,0,0,0.05,53.85,0)" xlink:href="#aj"/><use transform="matrix(0.05,0,0,0.05,62.85,0)" xlink:href="#ag"/><use transform="matrix(0.05,0,0,0.05,72.85000000000001,0)" xlink:href="#aq"/><use transform="matrix(0.05,0,0,0.05,82.85000000000001,0)" xlink:href="#ac"/><use transform="matrix(0.05,0,0,0.05,88.80000000000001,0)" xlink:href="#al"/><use transform="matrix(0.05,0,0,0.05,92.75000000000001,0)" xlink:href="#ai"/><use transform="matrix(0.05,0,0,0.05,102.75,0)" xlink:href="#aj"/><use transform="matrix(0.05,0,0,0.05,111.75,0)" xlink:href="#aw"/></g><use transform="matrix(0.05,0,0,0.05,0,0)" xlink:href="#ax" id="w"/><path fill="#333" d="M233-177c-1 41-23 64-60 70L243 0h-38l-65-103H63V0H30v-248c88 3 205-21 203 71zM63-129c60-2 137 13 137-47 0-61-80-42-137-45v92" id="aL"/><g id="x"><use transform="matrix(0.05,0,0,0.05,0,0)" xlink:href="#aq"/><use transform="matrix(0.05,0,0,0.05,10,0)" xlink:href="#aj"/><use transform="matrix(0.05,0,0,0.05,19,0)" xlink:href="#al"/><use transform="matrix(0.05,0,0,0.05,22.95,0)" xlink:href="#as"/><use transform="matrix(0.05,0,0,0.05,32.95,0)" xlink:href="#ao"/><use transform="matrix(0.05,0,0,0.05,42.95,0)" xlink:href="#aq"/><use transform="matrix(0.05,0,0,0.05,52.95,0)" xlink:href="#ac"/><use transform="matrix(0.05,0,0,0.05,58.900000000000006,0)" xlink:href="#aL"/><use transform="matrix(0.05,0,0,0.05,71.85000000000001,0)" xlink:href="#ai"/><use transform="matrix(0.05,0,0,0.05,81.85000000000001,0)" xlink:href="#ah"/><use transform="matrix(0.05,0,0,0.05,85.80000000000001,0)" xlink:href="#ar"/><use transform="matrix(0.05,0,0,0.05,95.80000000000001,0)" xlink:href="#aj"/><use transform="matrix(0.05,0,0,0.05,104.80000000000001,0)" xlink:href="#aw"/></g><path fill="#333" d="M101-234c-31-9-42 10-38 44h38v23H63V0H32v-167H5v-23h27c-7-52 17-82 69-68v24" id="aM"/><g id="y"><use transform="matrix(0.05,0,0,0.05,0,0)" xlink:href="#at"/><use transform="matrix(0.05,0,0,0.05,14.950000000000001,0)" xlink:href="#ai"/><use transform="matrix(0.05,0,0,0.05,24.950000000000003,0)" xlink:href="#am"/><use transform="matrix(0.05,0,0,0.05,34.95,0)" xlink:href="#al"/><use transform="matrix(0.05,0,0,0.05,38.900000000000006,0)" xlink:href="#aM"/><use transform="matrix(0.05,0,0,0.05,43.900000000000006,0)" xlink:href="#al"/><use transform="matrix(0.05,0,0,0.05,47.85000000000001,0)" xlink:href="#af"/><use transform="matrix(0.05,0,0,0.05,56.85,0)" xlink:href="#aq"/><use transform="matrix(0.05,0,0,0.05,66.85000000000001,0)" xlink:href="#ac"/><use transform="matrix(0.05,0,0,0.05,72.80000000000001,0)" xlink:href="#aK"/><use transform="matrix(0.05,0,0,0.05,85.75000000000001,0)" xlink:href="#aj"/><use transform="matrix(0.05,0,0,0.05,94.75000000000001,0)" xlink:href="#ag"/><use transform="matrix(0.05,0,0,0.05,104.75,0)" xlink:href="#aq"/><use transform="matrix(0.05,0,0,0.05,114.75,0)" xlink:href="#ac"/><use transform="matrix(0.05,0,0,0.05,120.7,0)" xlink:href="#al"/><use transform="matrix(0.05,0,0,0.05,124.65000000000003,0)" xlink:href="#ai"/><use transform="matrix(0.05,0,0,0.05,134.65000000000003,0)" xlink:href="#aj"/><use transform="matrix(0.05,0,0,0.05,143.65000000000003,0)" xlink:href="#aw"/></g><g id="z"><use transform="matrix(0.05,0,0,0.05,0,0)" xlink:href="#ar"/><use transform="matrix(0.05,0,0,0.05,10,0)" xlink:href="#ah"/><use transform="matrix(0.05,0,0,0.05,13.949999999999998,0)" xlink:href="#al"/><use transform="matrix(0.05,0,0,0.05,17.9,0)" xlink:href="#at"/><use transform="matrix(0.05,0,0,0.05,32.85,0)" xlink:href="#al"/><use transform="matrix(0.05,0,0,0.05,36.800000000000004,0)" xlink:href="#ao"/><use transform="matrix(0.05,0,0,0.05,46.800000000000004,0)" xlink:href="#aq"/><use transform="matrix(0.05,0,0,0.05,56.800000000000004,0)" xlink:href="#ac"/><use transform="matrix(0.05,0,0,0.05,62.75,0)" xlink:href="#aK"/><use transform="matrix(0.05,0,0,0.05,75.7,0)" xlink:href="#aj"/><use transform="matrix(0.05,0,0,0.05,84.7,0)" xlink:href="#ag"/><use transform="matrix(0.05,0,0,0.05,94.7,0)" xlink:href="#aq"/><use transform="matrix(0.05,0,0,0.05,104.7,0)" xlink:href="#ac"/><use transform="matrix(0.05,0,0,0.05,110.65,0)" xlink:href="#al"/><use transform="matrix(0.05,0,0,0.05,114.60000000000001,0)" xlink:href="#ai"/><use transform="matrix(0.05,0,0,0.05,124.60000000000001,0)" xlink:href="#aj"/><use transform="matrix(0.05,0,0,0.05,133.60000000000002,0)" xlink:href="#aw"/></g><g id="A"><use transform="matrix(0.05,0,0,0.05,0,0)" xlink:href="#af"/><use transform="matrix(0.05,0,0,0.05,9,0)" xlink:href="#ac"/><use transform="matrix(0.05,0,0,0.05,14.949999999999998,0)" xlink:href="#ar"/><use transform="matrix(0.05,0,0,0.05,24.95,0)" xlink:href="#aq"/><use transform="matrix(0.05,0,0,0.05,34.95,0)" xlink:href="#ac"/><use transform="matrix(0.05,0,0,0.05,40.900000000000006,0)" xlink:href="#ab"/><use transform="matrix(0.05,0,0,0.05,52.900000000000006,0)" xlink:href="#ac"/><use transform="matrix(0.05,0,0,0.05,58.85,0)" xlink:href="#ad"/><use transform="matrix(0.05,0,0,0.05,63.85,0)" xlink:href="#al"/><use transform="matrix(0.05,0,0,0.05,67.80000000000001,0)" xlink:href="#af"/><use transform="matrix(0.05,0,0,0.05,76.80000000000001,0)" xlink:href="#ag"/><use transform="matrix(0.05,0,0,0.05,86.80000000000001,0)" xlink:href="#ah"/><use transform="matrix(0.05,0,0,0.05,90.75000000000001,0)" xlink:href="#ai"/><use transform="matrix(0.05,0,0,0.05,100.75000000000001,0)" xlink:href="#aj"/><use transform="matrix(0.05,0,0,0.05,109.75,0)" xlink:href="#aw"/></g><g id="B"><use transform="matrix(0.05,0,0,0.05,0,0)" xlink:href="#at"/><use transform="matrix(0.05,0,0,0.05,14.950000000000001,0)" xlink:href="#ai"/><use transform="matrix(0.05,0,0,0.05,24.950000000000003,0)" xlink:href="#am"/><use transform="matrix(0.05,0,0,0.05,34.95,0)" xlink:href="#al"/><use transform="matrix(0.05,0,0,0.05,38.900000000000006,0)" xlink:href="#aM"/><use transform="matrix(0.05,0,0,0.05,43.900000000000006,0)" xlink:href="#al"/><use transform="matrix(0.05,0,0,0.05,47.85000000000001,0)" xlink:href="#af"/><use transform="matrix(0.05,0,0,0.05,56.85,0)" xlink:href="#aq"/><use transform="matrix(0.05,0,0,0.05,66.85000000000001,0)" xlink:href="#ac"/><use transform="matrix(0.05,0,0,0.05,72.80000000000001,0)" xlink:href="#ab"/><use transform="matrix(0.05,0,0,0.05,84.80000000000001,0)" xlink:href="#ac"/><use transform="matrix(0.05,0,0,0.05,90.75000000000001,0)" xlink:href="#ad"/><use transform="matrix(0.05,0,0,0.05,95.75000000000001,0)" xlink:href="#al"/><use transform="matrix(0.05,0,0,0.05,99.70000000000002,0)" xlink:href="#af"/><use transform="matrix(0.05,0,0,0.05,108.7,0)" xlink:href="#ag"/><use transform="matrix(0.05,0,0,0.05,118.7,0)" xlink:href="#ah"/><use transform="matrix(0.05,0,0,0.05,122.65000000000003,0)" xlink:href="#ai"/><use transform="matrix(0.05,0,0,0.05,132.65000000000003,0)" xlink:href="#aj"/><use transform="matrix(0.05,0,0,0.05,141.65000000000003,0)" xlink:href="#aw"/></g><g id="C"><use transform="matrix(0.05,0,0,0.05,0,0)" xlink:href="#ar"/><use transform="matrix(0.05,0,0,0.05,10,0)" xlink:href="#ah"/><use transform="matrix(0.05,0,0,0.05,13.949999999999998,0)" xlink:href="#al"/><use transform="matrix(0.05,0,0,0.05,17.9,0)" xlink:href="#at"/><use transform="matrix(0.05,0,0,0.05,32.85,0)" xlink:href="#al"/><use transform="matrix(0.05,0,0,0.05,36.800000000000004,0)" xlink:href="#ao"/><use transform="matrix(0.05,0,0,0.05,46.800000000000004,0)" xlink:href="#aq"/><use transform="matrix(0.05,0,0,0.05,56.800000000000004,0)" xlink:href="#ac"/><use transform="matrix(0.05,0,0,0.05,62.75,0)" xlink:href="#ab"/><use transform="matrix(0.05,0,0,0.05,74.75,0)" xlink:href="#ac"/><use transform="matrix(0.05,0,0,0.05,80.7,0)" xlink:href="#ad"/><use transform="matrix(0.05,0,0,0.05,85.7,0)" xlink:href="#al"/><use transform="matrix(0.05,0,0,0.05,89.65,0)" xlink:href="#af"/><use transform="matrix(0.05,0,0,0.05,98.65,0)" xlink:href="#ag"/><use transform="matrix(0.05,0,0,0.05,108.65,0)" xlink:href="#ah"/><use transform="matrix(0.05,0,0,0.05,112.60000000000001,0)" xlink:href="#ai"/><use transform="matrix(0.05,0,0,0.05,122.60000000000001,0)" xlink:href="#aj"/><use transform="matrix(0.05,0,0,0.05,131.60000000000002,0)" xlink:href="#aw"/></g><g id="D"><use transform="matrix(0.05,0,0,0.05,0,0)" xlink:href="#ag"/><use transform="matrix(0.05,0,0,0.05,10,0)" xlink:href="#aj"/><use transform="matrix(0.05,0,0,0.05,19,0)" xlink:href="#ag"/><use transform="matrix(0.05,0,0,0.05,29,0)" xlink:href="#aq"/><use transform="matrix(0.05,0,0,0.05,39,0)" xlink:href="#ac"/><use transform="matrix(0.05,0,0,0.05,44.95,0)" xlink:href="#al"/><use transform="matrix(0.05,0,0,0.05,48.900000000000006,0)" xlink:href="#ai"/></g><g id="E"><use transform="matrix(0.05,0,0,0.05,0,0)" xlink:href="#as"/><use transform="matrix(0.05,0,0,0.05,10,0)" xlink:href="#ar"/><use transform="matrix(0.05,0,0,0.05,20,0)" xlink:href="#ao"/><use transform="matrix(0.05,0,0,0.05,30,0)" xlink:href="#ar"/><use transform="matrix(0.05,0,0,0.05,40,0)" xlink:href="#ac"/><use transform="matrix(0.05,0,0,0.05,45.95,0)" xlink:href="#aq"/><use transform="matrix(0.05,0,0,0.05,55.95,0)" xlink:href="#ah"/></g><path fill="#333" d="M137 0h-34L2-248h35l83 218 83-218h36" id="aN"/><g id="F"><use transform="matrix(0.05,0,0,0.05,0,0)" xlink:href="#ac"/><use transform="matrix(0.05,0,0,0.05,5.95,0)" xlink:href="#ar"/><use transform="matrix(0.05,0,0,0.05,15.949999999999998,0)" xlink:href="#as"/><use transform="matrix(0.05,0,0,0.05,25.950000000000003,0)" xlink:href="#al"/><use transform="matrix(0.05,0,0,0.05,29.899999999999995,0)" xlink:href="#aj"/><use transform="matrix(0.05,0,0,0.05,38.9,0)" xlink:href="#ad"/><use transform="matrix(0.05,0,0,0.05,43.9,0)" xlink:href="#ac"/><use transform="matrix(0.05,0,0,0.05,49.85,0)" xlink:href="#aq"/><use transform="matrix(0.05,0,0,0.05,59.85,0)" xlink:href="#ac"/><use transform="matrix(0.05,0,0,0.05,65.8,0)" xlink:href="#aN"/><use transform="matrix(0.05,0,0,0.05,76.8,0)" xlink:href="#ar"/><use transform="matrix(0.05,0,0,0.05,86.8,0)" xlink:href="#ao"/><use transform="matrix(0.05,0,0,0.05,96.8,0)" xlink:href="#ad"/><use transform="matrix(0.05,0,0,0.05,101.8,0)" xlink:href="#aq"/><use transform="matrix(0.05,0,0,0.05,111.80000000000001,0)" xlink:href="#aj"/><use transform="matrix(0.05,0,0,0.05,120.80000000000001,0)" xlink:href="#aw"/></g><path fill="#333" d="M240 0l2-218c-23 76-54 145-80 218h-23L58-218 59 0H30v-248h44l77 211c21-75 51-140 76-211h43V0h-30" id="aO"/><g id="G"><use transform="matrix(0.05,0,0,0.05,0,0)" xlink:href="#ac"/><use transform="matrix(0.05,0,0,0.05,5.95,0)" xlink:href="#ar"/><use transform="matrix(0.05,0,0,0.05,15.949999999999998,0)" xlink:href="#as"/><use transform="matrix(0.05,0,0,0.05,25.950000000000003,0)" xlink:href="#al"/><use transform="matrix(0.05,0,0,0.05,29.899999999999995,0)" xlink:href="#aj"/><use transform="matrix(0.05,0,0,0.05,38.9,0)" xlink:href="#ad"/><use transform="matrix(0.05,0,0,0.05,43.9,0)" xlink:href="#ac"/><use transform="matrix(0.05,0,0,0.05,49.85,0)" xlink:href="#aq"/><use transform="matrix(0.05,0,0,0.05,59.85,0)" xlink:href="#ac"/><use transform="matrix(0.05,0,0,0.05,65.8,0)" xlink:href="#aO"/><use transform="matrix(0.05,0,0,0.05,80.75,0)" xlink:href="#ai"/><use transform="matrix(0.05,0,0,0.05,90.75,0)" xlink:href="#av"/><use transform="matrix(0.05,0,0,0.05,99.75,0)" xlink:href="#aI"/><use transform="matrix(0.05,0,0,0.05,104.75,0)" xlink:href="#ao"/><use transform="matrix(0.05,0,0,0.05,114.75,0)" xlink:href="#av"/><use transform="matrix(0.05,0,0,0.05,123.75,0)" xlink:href="#ar"/><use transform="matrix(0.05,0,0,0.05,133.75,0)" xlink:href="#ao"/><use transform="matrix(0.05,0,0,0.05,143.75,0)" xlink:href="#ad"/><use transform="matrix(0.05,0,0,0.05,148.75,0)" xlink:href="#aq"/><use transform="matrix(0.05,0,0,0.05,158.75,0)" xlink:href="#ac"/><use transform="matrix(0.05,0,0,0.05,164.7,0)" xlink:href="#al"/><use transform="matrix(0.05,0,0,0.05,168.64999999999998,0)" xlink:href="#ai"/><use transform="matrix(0.05,0,0,0.05,178.64999999999998,0)" xlink:href="#aw"/></g><g id="H"><use transform="matrix(0.05,0,0,0.05,0,0)" xlink:href="#aN"/><use transform="matrix(0.05,0,0,0.05,11,0)" xlink:href="#ar"/><use transform="matrix(0.05,0,0,0.05,21,0)" xlink:href="#ao"/><use transform="matrix(0.05,0,0,0.05,31,0)" xlink:href="#ad"/><use transform="matrix(0.05,0,0,0.05,36,0)" xlink:href="#aq"/><use transform="matrix(0.05,0,0,0.05,46,0)" xlink:href="#aj"/></g><g id="I"><use transform="matrix(0.05,0,0,0.05,0,0)" xlink:href="#aq"/><use transform="matrix(0.05,0,0,0.05,10,0)" xlink:href="#ac"/><use transform="matrix(0.05,0,0,0.05,15.949999999999998,0)" xlink:href="#ad"/><use transform="matrix(0.05,0,0,0.05,20.95,0)" xlink:href="#al"/><use transform="matrix(0.05,0,0,0.05,24.9,0)" xlink:href="#af"/><use transform="matrix(0.05,0,0,0.05,33.9,0)" xlink:href="#ag"/><use transform="matrix(0.05,0,0,0.05,43.9,0)" xlink:href="#ah"/><use transform="matrix(0.05,0,0,0.05,47.85,0)" xlink:href="#ai"/><use transform="matrix(0.05,0,0,0.05,57.85,0)" xlink:href="#aN"/><use transform="matrix(0.05,0,0,0.05,68.85,0)" xlink:href="#ar"/><use transform="matrix(0.05,0,0,0.05,78.85,0)" xlink:href="#ao"/><use transform="matrix(0.05,0,0,0.05,88.85,0)" xlink:href="#am"/><use transform="matrix(0.05,0,0,0.05,98.85,0)" xlink:href="#al"/><use transform="matrix(0.05,0,0,0.05,102.80000000000001,0)" xlink:href="#am"/><use transform="matrix(0.05,0,0,0.05,112.80000000000001,0)" xlink:href="#ai"/><use transform="matrix(0.05,0,0,0.05,122.80000000000001,0)" xlink:href="#an"/></g><g id="J"><use transform="matrix(0.05,0,0,0.05,0,0)" xlink:href="#af"/><use transform="matrix(0.05,0,0,0.05,9,0)" xlink:href="#aq"/><use transform="matrix(0.05,0,0,0.05,19,0)" xlink:href="#ao"/><use transform="matrix(0.05,0,0,0.05,29,0)" xlink:href="#ad"/><use transform="matrix(0.05,0,0,0.05,34,0)" xlink:href="#al"/><use transform="matrix(0.05,0,0,0.05,37.95,0)" xlink:href="#am"/><use transform="matrix(0.05,0,0,0.05,47.95,0)" xlink:href="#aq"/><use transform="matrix(0.05,0,0,0.05,57.95,0)" xlink:href="#am"/><use transform="matrix(0.05,0,0,0.05,67.95,0)" xlink:href="#an"/></g><path fill="#333" d="M106-169C34-169 62-67 57 0H25v-261h32l-1 103c12-21 28-36 61-36 89 0 53 116 60 194h-32v-121c2-32-8-49-39-48" id="aP"/><g id="K"><use transform="matrix(0.05,0,0,0.05,0,0)" xlink:href="#aM"/><use transform="matrix(0.05,0,0,0.05,5,0)" xlink:href="#ar"/><use transform="matrix(0.05,0,0,0.05,15,0)" xlink:href="#af"/><use transform="matrix(0.05,0,0,0.05,24,0)" xlink:href="#aP"/><use transform="matrix(0.05,0,0,0.05,34,0)" xlink:href="#aq"/><use transform="matrix(0.05,0,0,0.05,44,0)" xlink:href="#aN"/><use transform="matrix(0.05,0,0,0.05,55,0)" xlink:href="#ar"/><use transform="matrix(0.05,0,0,0.05,65,0)" xlink:href="#ao"/><use transform="matrix(0.05,0,0,0.05,75,0)" xlink:href="#ad"/><use transform="matrix(0.05,0,0,0.05,80,0)" xlink:href="#aq"/><use transform="matrix(0.05,0,0,0.05,90,0)" xlink:href="#an"/></g><path fill="#333" d="M30-248c118-7 216 8 213 122C240-48 200 0 122 0H30v-248zM63-27c89 8 146-16 146-99s-60-101-146-95v194" id="aQ"/><g id="L"><use transform="matrix(0.05,0,0,0.05,0,0)" xlink:href="#aQ"/><use transform="matrix(0.05,0,0,0.05,12.950000000000001,0)" xlink:href="#aq"/><use transform="matrix(0.05,0,0,0.05,22.950000000000003,0)" xlink:href="#ad"/><use transform="matrix(0.05,0,0,0.05,27.950000000000003,0)" xlink:href="#ar"/></g><g id="M"><use transform="matrix(0.05,0,0,0.05,0,0)" xlink:href="#ac"/><use transform="matrix(0.05,0,0,0.05,5.95,0)" xlink:href="#ar"/><use transform="matrix(0.05,0,0,0.05,15.949999999999998,0)" xlink:href="#as"/><use transform="matrix(0.05,0,0,0.05,25.950000000000003,0)" xlink:href="#al"/><use transform="matrix(0.05,0,0,0.05,29.899999999999995,0)" xlink:href="#aj"/><use transform="matrix(0.05,0,0,0.05,38.9,0)" xlink:href="#ad"/><use transform="matrix(0.05,0,0,0.05,43.9,0)" xlink:href="#ac"/><use transform="matrix(0.05,0,0,0.05,49.85,0)" xlink:href="#aq"/><use transform="matrix(0.05,0,0,0.05,59.85,0)" xlink:href="#ac"/><use transform="matrix(0.05,0,0,0.05,65.8,0)" xlink:href="#aN"/><use transform="matrix(0.05,0,0,0.05,76.8,0)" xlink:href="#ar"/><use transform="matrix(0.05,0,0,0.05,86.8,0)" xlink:href="#ao"/><use transform="matrix(0.05,0,0,0.05,96.8,0)" xlink:href="#ad"/><use transform="matrix(0.05,0,0,0.05,101.8,0)" xlink:href="#aq"/><use transform="matrix(0.05,0,0,0.05,111.80000000000001,0)" xlink:href="#aw"/></g><path fill="#333" d="M27 0v-27h64v-190l-56 39v-29l58-41h29v221h61V0H27" id="aR"/><use transform="matrix(0.05,0,0,0.05,0,0)" xlink:href="#aR" id="N"/><path fill="#333" d="M101-251c68 0 85 55 85 127S166 4 100 4C33 4 14-52 14-124c0-73 17-127 87-127zm-1 229c47 0 54-49 54-102s-4-102-53-102c-51 0-55 48-55 102 0 53 5 102 54 102" id="aS"/><path fill="#333" d="M33 0v-38h34V0H33" id="aT"/><path fill="#333" d="M80-196l47-18 7 23-49 13 32 44-20 13-27-46-27 45-21-12 33-44-49-13 8-23 47 19-2-53h23" id="aU"/><g id="O"><use transform="matrix(0.05,0,0,0.05,0,0)" xlink:href="#aS"/><use transform="matrix(0.05,0,0,0.05,10,0)" xlink:href="#aT"/><use transform="matrix(0.05,0,0,0.05,15,0)" xlink:href="#aT"/><use transform="matrix(0.05,0,0,0.05,20,0)" xlink:href="#aU"/></g><g id="P"><use transform="matrix(0.05,0,0,0.05,0,0)" xlink:href="#au"/><use transform="matrix(0.05,0,0,0.05,10,0)" xlink:href="#ag"/><use transform="matrix(0.05,0,0,0.05,20,0)" xlink:href="#ar"/><use transform="matrix(0.05,0,0,0.05,30,0)" xlink:href="#am"/><use transform="matrix(0.05,0,0,0.05,40,0)" xlink:href="#ar"/></g><g id="Q"><use transform="matrix(0.05,0,0,0.05,0,0)" xlink:href="#ac"/><use transform="matrix(0.05,0,0,0.05,5.95,0)" xlink:href="#ar"/><use transform="matrix(0.05,0,0,0.05,15.949999999999998,0)" xlink:href="#as"/><use transform="matrix(0.05,0,0,0.05,25.950000000000003,0)" xlink:href="#al"/><use transform="matrix(0.05,0,0,0.05,29.899999999999995,0)" xlink:href="#aj"/><use transform="matrix(0.05,0,0,0.05,38.9,0)" xlink:href="#ad"/><use transform="matrix(0.05,0,0,0.05,43.9,0)" xlink:href="#ac"/><use transform="matrix(0.05,0,0,0.05,49.85,0)" xlink:href="#aq"/><use transform="matrix(0.05,0,0,0.05,59.85,0)" xlink:href="#ac"/></g><g id="R"><use transform="matrix(0.05,0,0,0.05,0,0)" xlink:href="#aO"/><use transform="matrix(0.05,0,0,0.05,14.950000000000001,0)" xlink:href="#ai"/><use transform="matrix(0.05,0,0,0.05,24.950000000000003,0)" xlink:href="#av"/><use transform="matrix(0.05,0,0,0.05,33.95,0)" xlink:href="#al"/><use transform="matrix(0.05,0,0,0.05,37.900000000000006,0)" xlink:href="#at"/><use transform="matrix(0.05,0,0,0.05,52.85,0)" xlink:href="#al"/><use transform="matrix(0.05,0,0,0.05,56.80000000000001,0)" xlink:href="#ar"/><use transform="matrix(0.05,0,0,0.05,66.80000000000001,0)" xlink:href="#ao"/><use transform="matrix(0.05,0,0,0.05,76.80000000000001,0)" xlink:href="#ad"/><use transform="matrix(0.05,0,0,0.05,81.80000000000001,0)" xlink:href="#ai"/><use transform="matrix(0.05,0,0,0.05,91.80000000000001,0)" xlink:href="#aj"/></g><g id="S"><use transform="matrix(0.05,0,0,0.05,0,0)" xlink:href="#am"/><use transform="matrix(0.05,0,0,0.05,10,0)" xlink:href="#ar"/></g><g id="T"><use transform="matrix(0.05,0,0,0.05,0,0)" xlink:href="#aI"/><use transform="matrix(0.05,0,0,0.05,5,0)" xlink:href="#ao"/><use transform="matrix(0.05,0,0,0.05,15,0)" xlink:href="#av"/><use transform="matrix(0.05,0,0,0.05,24,0)" xlink:href="#ar"/><use transform="matrix(0.05,0,0,0.05,34,0)" xlink:href="#ao"/><use transform="matrix(0.05,0,0,0.05,44,0)" xlink:href="#ad"/><use transform="matrix(0.05,0,0,0.05,49,0)" xlink:href="#aq"/><use transform="matrix(0.05,0,0,0.05,59,0)" xlink:href="#ac"/><use transform="matrix(0.05,0,0,0.05,64.95,0)" xlink:href="#al"/><use transform="matrix(0.05,0,0,0.05,68.9,0)" xlink:href="#ai"/></g><g id="U"><use transform="matrix(0.05,0,0,0.05,0,0)" xlink:href="#aq"/><use transform="matrix(0.05,0,0,0.05,10,0)" xlink:href="#ac"/><use transform="matrix(0.05,0,0,0.05,15.949999999999998,0)" xlink:href="#ad"/><use transform="matrix(0.05,0,0,0.05,20.95,0)" xlink:href="#al"/><use transform="matrix(0.05,0,0,0.05,24.9,0)" xlink:href="#af"/><use transform="matrix(0.05,0,0,0.05,33.9,0)" xlink:href="#ag"/><use transform="matrix(0.05,0,0,0.05,43.9,0)" xlink:href="#ah"/><use transform="matrix(0.05,0,0,0.05,47.85,0)" xlink:href="#ai"/><use transform="matrix(0.05,0,0,0.05,57.85,0)" xlink:href="#an"/></g><g id="V"><use transform="matrix(0.05,0,0,0.05,0,0)" xlink:href="#ad"/><use transform="matrix(0.05,0,0,0.05,5,0)" xlink:href="#al"/><use transform="matrix(0.05,0,0,0.05,8.95,0)" xlink:href="#au"/><use transform="matrix(0.05,0,0,0.05,18.95,0)" xlink:href="#ai"/><use transform="matrix(0.05,0,0,0.05,28.950000000000003,0)" xlink:href="#aO"/><use transform="matrix(0.05,0,0,0.05,43.9,0)" xlink:href="#ai"/><use transform="matrix(0.05,0,0,0.05,53.900000000000006,0)" xlink:href="#av"/><use transform="matrix(0.05,0,0,0.05,62.900000000000006,0)" xlink:href="#an"/></g><g id="W"><use transform="matrix(0.05,0,0,0.05,0,0)" xlink:href="#af"/><use transform="matrix(0.05,0,0,0.05,9,0)" xlink:href="#ac"/><use transform="matrix(0.05,0,0,0.05,14.949999999999998,0)" xlink:href="#ar"/><use transform="matrix(0.05,0,0,0.05,24.95,0)" xlink:href="#aq"/><use transform="matrix(0.05,0,0,0.05,34.95,0)" xlink:href="#ac"/></g><g id="X"><use transform="matrix(0.05,0,0,0.05,0,0)" xlink:href="#au"/><use transform="matrix(0.05,0,0,0.05,10,0)" xlink:href="#ag"/><use transform="matrix(0.05,0,0,0.05,20,0)" xlink:href="#ac"/><use transform="matrix(0.05,0,0,0.05,25.950000000000003,0)" xlink:href="#am"/><use transform="matrix(0.05,0,0,0.05,35.95,0)" xlink:href="#ar"/></g><g id="Y"><use transform="matrix(0.05,0,0,0.05,0,0)" xlink:href="#am"/><use transform="matrix(0.05,0,0,0.05,10,0)" xlink:href="#al"/><use transform="matrix(0.05,0,0,0.05,13.949999999999998,0)" xlink:href="#ac"/><use transform="matrix(0.05,0,0,0.05,19.9,0)" xlink:href="#ar"/><use transform="matrix(0.05,0,0,0.05,29.899999999999995,0)" xlink:href="#af"/><use transform="matrix(0.05,0,0,0.05,38.9,0)" xlink:href="#ad"/><use transform="matrix(0.05,0,0,0.05,43.9,0)" xlink:href="#ai"/><use transform="matrix(0.05,0,0,0.05,53.900000000000006,0)" xlink:href="#ac"/></g><g id="Z"><use transform="matrix(0.05,0,0,0.05,0,0)" xlink:href="#af"/><use transform="matrix(0.05,0,0,0.05,9,0)" xlink:href="#ai"/><use transform="matrix(0.05,0,0,0.05,19,0)" xlink:href="#ao"/><use transform="matrix(0.05,0,0,0.05,29,0)" xlink:href="#aj"/><use transform="matrix(0.05,0,0,0.05,38,0)" xlink:href="#ag"/><use transform="matrix(0.05,0,0,0.05,48,0)" xlink:href="#ah"/><use transform="matrix(0.05,0,0,0.05,51.95,0)" xlink:href="#ad"/><use transform="matrix(0.05,0,0,0.05,56.95,0)" xlink:href="#aq"/><use transform="matrix(0.05,0,0,0.05,66.95,0)" xlink:href="#ac"/><use transform="matrix(0.05,0,0,0.05,72.9,0)" xlink:href="#aO"/><use transform="matrix(0.05,0,0,0.05,87.85000000000001,0)" xlink:href="#ai"/><use transform="matrix(0.05,0,0,0.05,97.85000000000001,0)" xlink:href="#av"/><use transform="matrix(0.05,0,0,0.05,106.85000000000001,0)" xlink:href="#al"/><use transform="matrix(0.05,0,0,0.05,110.80000000000001,0)" xlink:href="#at"/><use transform="matrix(0.05,0,0,0.05,125.75,0)" xlink:href="#al"/><use transform="matrix(0.05,0,0,0.05,129.70000000000002,0)" xlink:href="#ar"/><use transform="matrix(0.05,0,0,0.05,139.70000000000002,0)" xlink:href="#ao"/><use transform="matrix(0.05,0,0,0.05,149.70000000000002,0)" xlink:href="#ad"/><use transform="matrix(0.05,0,0,0.05,154.70000000000002,0)" xlink:href="#ai"/><use transform="matrix(0.05,0,0,0.05,164.70000000000002,0)" xlink:href="#aj"/><use transform="matrix(0.05,0,0,0.05,173.70000000000002,0)" xlink:href="#aw"/></g><g id="aa"><use transform="matrix(0.05,0,0,0.05,0,0)" xlink:href="#af"/><use transform="matrix(0.05,0,0,0.05,9,0)" xlink:href="#ai"/><use transform="matrix(0.05,0,0,0.05,19,0)" xlink:href="#ao"/><use transform="matrix(0.05,0,0,0.05,29,0)" xlink:href="#aj"/><use transform="matrix(0.05,0,0,0.05,38,0)" xlink:href="#ag"/><use transform="matrix(0.05,0,0,0.05,48,0)" xlink:href="#ah"/><use transform="matrix(0.05,0,0,0.05,51.95,0)" xlink:href="#ad"/><use transform="matrix(0.05,0,0,0.05,56.95,0)" xlink:href="#aq"/><use transform="matrix(0.05,0,0,0.05,66.95,0)" xlink:href="#ac"/></g></defs></g></svg>