<svg xmlns="http://www.w3.org/2000/svg" xmlns:xlink="http://www.w3.org/1999/xlink" xmlns:lucid="lucid" width="920" height="800"><g transform="translate(-600 -180)" lucid:page-tab-id="s9RcOH2pqRaS"><path d="M1047.5 208a8 8 0 0 1 8-8h144a8 8 0 0 1 8 8v104a8 8 0 0 1-8 8h-144a8 8 0 0 1-8-8z" stroke="#333" fill="#fff"/><path d="M1177.5 265.1c1.7 0 2.5-2.4 1.3-3.5l-49.2-49.4-49.3 49.5c-1.2 1.1-.4 3.4 1.3 3.4h8.6V310h26.2v-37.4h22.5V310h26.3v-44.9h12.3zm-76.1-48.6h-14.9v26.3l14.9-14.9v-11.4z" fill="#f3f3f3"/><use xlink:href="#a" transform="matrix(1,0,0,1,1052.5,205) translate(54.05 58.6)"/><path d="M1047.5 368a8 8 0 0 1 8-8h144a8 8 0 0 1 8 8v104a8 8 0 0 1-8 8h-144a8 8 0 0 1-8-8z" stroke="#333" fill="#fff"/><path d="M1106.4 413.8c8.4 0 15.3-6.9 15.3-15.3 0-8.5-6.9-15.3-15.3-15.3s-15.3 6.8-15.3 15.3c0 8.4 6.9 15.3 15.3 15.3m.3 6c-14.6 0-26.6 12.3-27.9 28-.2 2 .7 3.9 2.3 5 7.4 4.6 16.2 7.3 25.6 7.3 9.4 0 18.2-2.7 25.6-7.3 1.7-1.1 2.5-3 2.4-5-1.4-15.7-13.4-28-28-28m53.3 1.7v-7.9l7.8-4.5v-4.4h-7.8v-6.4l8.1-5.4v-8.1h-16.2v37.6c-7.1 2.5-12.2 9.2-12.2 17.2 0 10 8.2 18.2 18.3 18.2 10.1 0 18.3-8.2 18.3-18.2 0-9.4-7.2-17.1-16.3-18.1m-2 28.2c-5.6 0-10.1-4.5-10.1-10.1s4.5-10.2 10.1-10.2 10.1 4.6 10.1 10.2-4.5 10.1-10.1 10.1" fill="#f3f3f3"/><use xlink:href="#b" transform="matrix(1,0,0,1,1052.5,365) translate(22.599999999999994 58.6)"/><use xlink:href="#c" transform="matrix(1,0,0,1,1052.5,365) translate(75.44999999999999 58.6)"/><path d="M1127.5 320.95v38.1" stroke="#333" fill="none"/><path d="M1128 320.96h-1v-.5h1zM1128 359.55h-1v-.5h1z" stroke="#333" stroke-width=".05" fill="#333"/><path d="M845 528a8 8 0 0 1 8-8h144a8 8 0 0 1 8 8v104a8 8 0 0 1-8 8H853a8 8 0 0 1-8-8z" stroke="#333" fill="#fff"/><path d="M886.1 619.2h77.8c6.1 0 11.1-4.9 11.1-11.1v-55.5c0-6.2-5-11.1-11.1-11.1h-77.8c-6.1 0-11.1 4.9-11.1 11.1v55.5c0 6.2 5 11.1 11.1 11.1m44.5-55.5h37v7.4h-37v-7.4zm0 14.8h37v7.4h-37v-7.4zm0 14.8h37v7.4h-37v-7.4zm-29-33.7c5.4 0 9.7 4.3 9.7 9.7 0 5.4-4.3 9.7-9.7 9.7-5.3 0-9.7-4.3-9.7-9.7 0-5.4 4.4-9.7 9.7-9.7m.2 23.3c9.3 0 17 7.8 17.8 17.8.1 1.3-.4 2.5-1.5 3.2-4.7 2.9-10.3 4.6-16.3 4.6s-11.5-1.7-16.3-4.6c-1-.7-1.6-1.9-1.5-3.2.9-10 8.5-17.8 17.8-17.8" fill="#f3f3f3"/><use xlink:href="#d" transform="matrix(1,0,0,1,850,525) translate(19.624999999999993 58.6)"/><path d="M1127.5 480.95V488a12 12 0 0 1-12 12H937a12 12 0 0 0-12 12v7.05" stroke="#333" fill="none"/><path d="M1128 480.96h-1v-.5h1zM925.5 519.55h-1v-.5h1z" stroke="#333" stroke-width=".05" fill="#333"/><path d="M1250 528a8 8 0 0 1 8-8h144a8 8 0 0 1 8 8v104a8 8 0 0 1-8 8h-144a8 8 0 0 1-8-8z" stroke="#333" fill="#fff"/><path d="M1291.1 619.2h77.8c6.1 0 11.1-4.9 11.1-11.1v-55.5c0-6.2-5-11.1-11.1-11.1h-77.8c-6.1 0-11.1 4.9-11.1 11.1v55.5c0 6.2 5 11.1 11.1 11.1m44.5-55.5h37v7.4h-37v-7.4zm0 14.8h37v7.4h-37v-7.4zm0 14.8h37v7.4h-37v-7.4zm-29-33.7c5.4 0 9.7 4.3 9.7 9.7 0 5.4-4.3 9.7-9.7 9.7-5.3 0-9.7-4.3-9.7-9.7 0-5.4 4.4-9.7 9.7-9.7m.2 23.3c9.3 0 17 7.8 17.8 17.8.1 1.3-.4 2.5-1.5 3.2-4.7 2.9-10.3 4.6-16.3 4.6s-11.5-1.7-16.3-4.6c-1-.7-1.6-1.9-1.5-3.2.9-10 8.5-17.8 17.8-17.8" fill="#f3f3f3"/><use xlink:href="#e" transform="matrix(1,0,0,1,1255,525) translate(56.05 58.6)"/><path d="M1127.5 480.95V488a12 12 0 0 0 12 12H1318a12 12 0 0 1 12 12v7.05" stroke="#333" fill="none"/><path d="M1128 480.96h-1v-.5h1zM1330.5 519.55h-1v-.5h1z" stroke="#333" stroke-width=".05" fill="#333"/><path d="M1160 688a8 8 0 0 1 8-8h144a8 8 0 0 1 8 8v104a8 8 0 0 1-8 8h-144a8 8 0 0 1-8-8z" stroke="#333" fill="#fff"/><path d="M1221.1 693.7h-27.3v6.6c0 1.8 1.5 3.3 3.3 3.3h12.1l10 47.5c1 4.5 5 7.8 9.6 7.8h44c3.6 0 5.9-3.6 6.6-7.2l6.8-37.4h-61.7l-3.4-20.6zm55 82.7c0-5.5-4.4-9.9-9.9-9.9-5.4 0-9.9 4.4-9.9 9.9s4.5 9.9 9.9 9.9c5.5 0 9.9-4.4 9.9-9.9m-32.9 0c0-5.5-4.5-9.9-9.9-9.9-5.5 0-9.9 4.4-9.9 9.9s4.4 9.9 9.9 9.9c5.4 0 9.9-4.4 9.9-9.9" fill="#f3f3f3"/><use xlink:href="#f" transform="matrix(1,0,0,1,1165,685) translate(1.6499999999999915 58.6)"/><use xlink:href="#g" transform="matrix(1,0,0,1,1165,685) translate(79.45 58.6)"/><path d="M710 688a8 8 0 0 1 8-8h144a8 8 0 0 1 8 8v104a8 8 0 0 1-8 8H718a8 8 0 0 1-8-8z" stroke="#333" fill="#fff"/><path d="M747.4 747.4h3.4c1.7 0 3.1.6 3.6 2.3.8 2.7 1.9 4.8 3.2 7.2.9 1.5.7 3.2-.5 4.4l-2.5 2.5c-.7.7-.7 1.9 0 2.6l7.9 7.9c.7.7 1.9.7 2.6 0l2.5-2.5c1.2-1.2 2.9-1.3 4.4-.5 2.4 1.3 5 2.4 7.8 3.2 1.6.5 2.8 1.9 2.8 3.6v3.4c0 1 .8 3 1.8 3h11.2c1 0 1.8-2 1.8-3v-3.4c0-1.7 1.2-3.1 2.8-3.6 2.8-.8 5.4-1.9 7.8-3.2 1.5-.8 3.2-.7 4.4.5l2.5 2.5c.7.7 1.9.7 2.6 0l7.9-7.9c.7-.7.7-1.8 0-2.5l-2.5-2.5c-1.2-1.1-1.3-2.8-.5-4.2 1.3-2.4 2.4-4.8 3.2-7.5.5-1.7 1.9-2.3 3.6-2.3h3.4c1 0 1.8-1.9 1.8-2.9v-11.1c0-1.1-.8-.8-1.8-.8h-3.4c-1.7 0-3.1-1.7-3.6-3.3-.8-2.8-1.9-6-3.2-8.4-.9-1.4-.7-3.2.5-4.4l2.5-2.5c.7-.7.7-1.9 0-2.6l-7.9-7.8c-.7-.8-1.9-.8-2.6 0l-2.5 2.4c-1.2 1.2-2.9 1.4-4.4.6-2.4-1.4-5-2.5-7.8-3.3-1.6-.5-2.8-1.9-2.8-3.6v-3.4c0-1-.8-.7-1.8-.7h-11.2c-1 0-1.8-.3-1.8.7v3.4c0 1.7-1.2 3.1-2.8 3.6-2.8.8-5.4 1.9-7.8 3.3-1.5.8-3.2.6-4.4-.6l-2.5-2.4c-.7-.8-1.9-.8-2.6 0l-7.9 7.8c-.7.8-.7 2 0 2.7l2.5 2.6c1.2 1.1 1.4 3 .5 4.5-1.3 2.4-2.4 5.3-3.2 8.1-.5 1.6-1.9 3.3-3.6 3.3h-3.4c-1 0-1.8-.3-1.8.8v11.1c0 1 .8 2.9 1.8 2.9m42.6-30.7c12.3 0 22.2 9.9 22.2 22.2 0 12.3-9.9 22.2-22.2 22.2-12.3 0-22.2-9.9-22.2-22.2 0-12.3 9.9-22.2 22.2-22.2" fill="#f3f3f3"/><use xlink:href="#h" transform="matrix(1,0,0,1,715,685) translate(19.599999999999994 58.6)"/><path d="M1340 688a8 8 0 0 1 8-8h144a8 8 0 0 1 8 8v104a8 8 0 0 1-8 8h-144a8 8 0 0 1-8-8z" stroke="#333" fill="#fff"/><path d="M1458.9 699.8h-77.8c-6.1 0-11.1 5-11.1 11.1v55.6c0 6.1 5 11.1 11.1 11.1h77.8c6.1 0 11.1-5 11.1-11.1v-55.6c0-6.1-5-11.1-11.1-11.1m-73.6 35.7h11c3.5 0 6.3 2.8 6.3 6.3v6.3c0 3.4-2.9 6.3-6.3 6.3h-3.2v3.1c0 1.7-1.4 3.2-3.1 3.2-1.8 0-3.2-1.5-3.2-3.2v-3.1h-6.2c-1.8 0-3.2-1.4-3.2-3.2 0-1.7 1.4-3.1 3.2-3.1h14.1c.9 0 1.6-.7 1.6-1.6v-3.2c0-.8-.7-1.5-1.6-1.5h-11c-3.5 0-6.3-2.8-6.3-6.3v-6.3c0-3.5 2.8-6.3 6.3-6.3h3.1v-3c0-1.7 1.5-3.2 3.2-3.2 1.7 0 3.1 1.5 3.1 3.2v3h6.3c1.8 0 3.2 1.4 3.2 3.2 0 1.7-1.4 3.1-3.2 3.1h-14.1c-.9 0-1.6.7-1.6 1.6v3.1c0 .9.7 1.6 1.6 1.6m30 0h11c3.5 0 6.3 2.8 6.3 6.3v6.3c0 3.4-2.8 6.3-6.3 6.3h-3.2v3.1c0 1.7-1.4 3.2-3.1 3.2-1.7 0-3.1-1.5-3.1-3.2v-3.1h-6.3c-1.8 0-3.2-1.4-3.2-3.2 0-1.7 1.4-3.1 3.2-3.1h14.1c.9 0 1.6-.7 1.6-1.6v-3.2c0-.8-.7-1.5-1.6-1.5h-11c-3.5 0-6.3-2.8-6.3-6.3v-6.3c0-3.5 2.8-6.3 6.3-6.3h3.2v-3c0-1.7 1.4-3.2 3.1-3.2 1.7 0 3.1 1.5 3.1 3.2v3h6.3c1.8 0 3.2 1.4 3.2 3.2 0 1.7-1.4 3.1-3.2 3.1h-14.1c-.9 0-1.6.7-1.6 1.6v3.1c0 .9.7 1.6 1.6 1.6m30 0h11c3.5 0 6.3 2.8 6.3 6.3v6.3c0 3.4-2.8 6.3-6.3 6.3h-3.1v3.1c0 1.7-1.5 3.2-3.2 3.2-1.7 0-3.1-1.5-3.1-3.2v-3.1h-6.3c-1.8 0-3.2-1.4-3.2-3.2 0-1.7 1.4-3.1 3.2-3.1h14.1c.9 0 1.6-.7 1.6-1.6v-3.2c0-.8-.7-1.5-1.6-1.5h-11c-3.5 0-6.3-2.8-6.3-6.3v-6.3c0-3.5 2.8-6.3 6.3-6.3h3.2v-3c0-1.7 1.4-3.2 3.1-3.2 1.7 0 3.2 1.5 3.2 3.2v3h6.2c1.8 0 3.2 1.4 3.2 3.2 0 1.7-1.4 3.1-3.2 3.1h-14.1c-.9 0-1.6.7-1.6 1.6v3.1c0 .9.7 1.6 1.6 1.6" fill="#f3f3f3"/><use xlink:href="#i" transform="matrix(1,0,0,1,1345,685) translate(38.599999999999994 47.8)"/><use xlink:href="#j" transform="matrix(1,0,0,1,1345,685) translate(36.074999999999996 69.4)"/><path d="M980 688a8 8 0 0 1 8-8h144a8 8 0 0 1 8 8v104a8 8 0 0 1-8 8H988a8 8 0 0 1-8-8z" stroke="#333" fill="#fff"/><path d="M1060 786.1c6.4 0 12.5-1.3 18.1-3.6l-23.2-40.8v-47.5c-2 .2-3.9.6-5.8 1-20.2 4.9-35.2 23.1-35.2 44.8 0 25.5 20.6 46.1 46.1 46.1m28.7-82.2c-5.1-4.1-11.1-7.1-17.6-8.7-3.1-.7-6.2-1.2-9.4-1.3v42.9l27-32.9zm-24.4 40.5l19.8 34.9c13.2-8.1 22-22.7 22-39.3 0-12.2-4.7-23.2-12.3-31.5l-29.5 35.9z" fill="#f3f3f3"/><use xlink:href="#k" transform="matrix(1,0,0,1,985,685) translate(31.049999999999997 58.6)"/><path d="M925 640.95V648a12 12 0 0 1-12 12H802a12 12 0 0 0-12 12v7.05" stroke="#333" fill="none"/><path d="M925.5 640.96h-1v-.5h1zM790.5 679.55h-1v-.5h1z" stroke="#333" stroke-width=".05" fill="#333"/><path d="M925 640.95V648a12 12 0 0 0 12 12h111a12 12 0 0 1 12 12v7.05" stroke="#333" fill="none"/><path d="M925.5 640.96h-1v-.5h1zM1060.5 679.55h-1v-.5h1z" stroke="#333" stroke-width=".05" fill="#333"/><path d="M1330 640.95V648a12 12 0 0 1-12 12h-66a12 12 0 0 0-12 12v7.05" stroke="#333" fill="none"/><path d="M1330.5 640.96h-1v-.5h1zM1240.5 679.55h-1v-.5h1z" stroke="#333" stroke-width=".05" fill="#333"/><path d="M1330 640.95V648a12 12 0 0 0 12 12h66a12 12 0 0 1 12 12v7.05" stroke="#333" fill="none"/><path d="M1330.5 640.96h-1v-.5h1zM1420.5 679.55h-1v-.5h1z" stroke="#333" stroke-width=".05" fill="#333"/><path d="M620 848a8 8 0 0 1 8-8h144a8 8 0 0 1 8 8v104a8 8 0 0 1-8 8H628a8 8 0 0 1-8-8z" stroke="#333" fill="#fff"/><path d="M678.9 893.8c8.4 0 15.3-6.9 15.3-15.3 0-8.5-6.9-15.3-15.3-15.3s-15.3 6.8-15.3 15.3c0 8.4 6.9 15.3 15.3 15.3m.3 6c-14.6 0-26.6 12.3-27.9 28-.2 2 .7 3.9 2.3 5 7.4 4.6 16.2 7.3 25.6 7.3 9.4 0 18.2-2.7 25.6-7.3 1.7-1.1 2.5-3 2.4-5-1.4-15.7-13.4-28-28-28m53.3 1.7v-7.9l7.8-4.5v-4.4h-7.8v-6.4l8.1-5.4v-8.1h-16.2v37.6c-7.1 2.5-12.2 9.2-12.2 17.2 0 10 8.2 18.2 18.3 18.2 10.1 0 18.3-8.2 18.3-18.2 0-9.4-7.2-17.1-16.3-18.1m-2 28.2c-5.6 0-10.1-4.5-10.1-10.1s4.5-10.2 10.1-10.2 10.1 4.6 10.1 10.2-4.5 10.1-10.1 10.1" fill="#f3f3f3"/><use xlink:href="#l" transform="matrix(1,0,0,1,625,845) translate(39.574999999999996 58.6)"/><path d="M790 800.95V808a12 12 0 0 1-12 12h-66a12 12 0 0 0-12 12v7.05" stroke="#333" fill="none"/><path d="M790.5 800.96h-1v-.5h1zM700.5 839.55h-1v-.5h1z" stroke="#333" stroke-width=".05" fill="#333"/><path d="M800 848a8 8 0 0 1 8-8h144a8 8 0 0 1 8 8v104a8 8 0 0 1-8 8H808a8 8 0 0 1-8-8z" stroke="#333" fill="#fff"/><path d="M837.4 907.4h3.4c1.7 0 3.1.6 3.6 2.3.8 2.7 1.9 4.8 3.2 7.2.9 1.5.7 3.2-.5 4.4l-2.5 2.5c-.7.7-.7 1.9 0 2.6l7.9 7.9c.7.7 1.9.7 2.6 0l2.5-2.5c1.2-1.2 2.9-1.3 4.4-.5 2.4 1.3 5 2.4 7.8 3.2 1.6.5 2.8 1.9 2.8 3.6v3.4c0 1 .8 3 1.8 3h11.2c1 0 1.8-2 1.8-3v-3.4c0-1.7 1.2-3.1 2.8-3.6 2.8-.8 5.4-1.9 7.8-3.2 1.5-.8 3.2-.7 4.4.5l2.5 2.5c.7.7 1.9.7 2.6 0l7.9-7.9c.7-.7.7-1.8 0-2.5l-2.5-2.5c-1.2-1.1-1.3-2.8-.5-4.2 1.3-2.4 2.4-4.8 3.2-7.5.5-1.7 1.9-2.3 3.6-2.3h3.4c1 0 1.8-1.9 1.8-2.9v-11.1c0-1.1-.8-.8-1.8-.8h-3.4c-1.7 0-3.1-1.7-3.6-3.3-.8-2.8-1.9-6-3.2-8.4-.9-1.4-.7-3.2.5-4.4l2.5-2.5c.7-.7.7-1.9 0-2.6l-7.9-7.8c-.7-.8-1.9-.8-2.6 0l-2.5 2.4c-1.2 1.2-2.9 1.4-4.4.6-2.4-1.4-5-2.5-7.8-3.3-1.6-.5-2.8-1.9-2.8-3.6v-3.4c0-1-.8-.7-1.8-.7h-11.2c-1 0-1.8-.3-1.8.7v3.4c0 1.7-1.2 3.1-2.8 3.6-2.8.8-5.4 1.9-7.8 3.3-1.5.8-3.2.6-4.4-.6l-2.5-2.4c-.7-.8-1.9-.8-2.6 0l-7.9 7.8c-.7.8-.7 2 0 2.7l2.5 2.6c1.2 1.1 1.4 3 .5 4.5-1.3 2.4-2.4 5.3-3.2 8.1-.5 1.6-1.9 3.3-3.6 3.3h-3.4c-1 0-1.8-.3-1.8.8v11.1c0 1 .8 2.9 1.8 2.9m42.6-30.7c12.3 0 22.2 9.9 22.2 22.2 0 12.3-9.9 22.2-22.2 22.2-12.3 0-22.2-9.9-22.2-22.2 0-12.3 9.9-22.2 22.2-22.2" fill="#f3f3f3"/><use xlink:href="#m" transform="matrix(1,0,0,1,805,845) translate(40.05 58.6)"/><path d="M790 800.95V808a12 12 0 0 0 12 12h66a12 12 0 0 1 12 12v7.05" stroke="#333" fill="none"/><path d="M790.5 800.96h-1v-.5h1zM880.5 839.55h-1v-.5h1z" stroke="#333" stroke-width=".05" fill="#333"/><defs><path fill="#333" d="M33 0v-248h34V0H33" id="n"/><path fill="#333" d="M117-194c89-4 53 116 60 194h-32v-121c0-31-8-49-39-48C34-167 62-67 57 0H25l-1-190h30c1 10-1 24 2 32 11-22 29-35 61-36" id="o"/><path fill="#333" d="M24-231v-30h32v30H24zM24 0v-190h32V0H24" id="p"/><path fill="#333" d="M96-169c-40 0-48 33-48 73s9 75 48 75c24 0 41-14 43-38l32 2c-6 37-31 61-74 61-59 0-76-41-82-99-10-93 101-131 147-64 4 7 5 14 7 22l-32 3c-4-21-16-35-41-35" id="q"/><path fill="#333" d="M100-194c62-1 85 37 85 99 1 63-27 99-86 99S16-35 15-95c0-66 28-99 85-99zM99-20c44 1 53-31 53-75 0-43-8-75-51-75s-53 32-53 75 10 74 51 75" id="r"/><g id="a"><use transform="matrix(0.05,0,0,0.05,0,0)" xlink:href="#n"/><use transform="matrix(0.05,0,0,0.05,5,0)" xlink:href="#o"/><use transform="matrix(0.05,0,0,0.05,15,0)" xlink:href="#p"/><use transform="matrix(0.05,0,0,0.05,18.95,0)" xlink:href="#q"/><use transform="matrix(0.05,0,0,0.05,27.950000000000003,0)" xlink:href="#p"/><use transform="matrix(0.05,0,0,0.05,31.899999999999995,0)" xlink:href="#r"/></g><path fill="#333" d="M141-36C126-15 110 5 73 4 37 3 15-17 15-53c-1-64 63-63 125-63 3-35-9-54-41-54-24 1-41 7-42 31l-33-3c5-37 33-52 76-52 45 0 72 20 72 64v82c-1 20 7 32 28 27v20c-31 9-61-2-59-35zM48-53c0 20 12 33 32 33 41-3 63-29 60-74-43 2-92-5-92 41" id="s"/><path fill="#333" d="M114-163C36-179 61-72 57 0H25l-1-190h30c1 12-1 29 2 39 6-27 23-49 58-41v29" id="t"/><g id="b"><use transform="matrix(0.05,0,0,0.05,0,0)" xlink:href="#n"/><use transform="matrix(0.05,0,0,0.05,5,0)" xlink:href="#o"/><use transform="matrix(0.05,0,0,0.05,15,0)" xlink:href="#p"/><use transform="matrix(0.05,0,0,0.05,18.95,0)" xlink:href="#q"/><use transform="matrix(0.05,0,0,0.05,27.950000000000003,0)" xlink:href="#p"/><use transform="matrix(0.05,0,0,0.05,31.899999999999995,0)" xlink:href="#s"/><use transform="matrix(0.05,0,0,0.05,41.9,0)" xlink:href="#t"/></g><path fill="#333" d="M135-143c-3-34-86-38-87 0 15 53 115 12 119 90S17 21 10-45l28-5c4 36 97 45 98 0-10-56-113-15-118-90-4-57 82-63 122-42 12 7 21 19 24 35" id="u"/><path fill="#333" d="M100-194c63 0 86 42 84 106H49c0 40 14 67 53 68 26 1 43-12 49-29l28 8c-11 28-37 45-77 45C44 4 14-33 15-96c1-61 26-98 85-98zm52 81c6-60-76-77-97-28-3 7-6 17-6 28h103" id="v"/><path fill="#333" d="M100-194c62-1 85 37 85 99 1 63-27 99-86 99S16-35 15-95c0-66 28-99 85-99zM99-20c44 1 53-31 53-75 0-43-8-75-51-75s-53 32-53 75 10 74 51 75zM76-211c8-23 27-35 38-54h36v5l-58 49H76" id="w"/><g id="c"><use transform="matrix(0.05,0,0,0.05,0,0)" xlink:href="#u"/><use transform="matrix(0.05,0,0,0.05,9,0)" xlink:href="#v"/><use transform="matrix(0.05,0,0,0.05,19,0)" xlink:href="#u"/><use transform="matrix(0.05,0,0,0.05,28,0)" xlink:href="#p"/><use transform="matrix(0.05,0,0,0.05,31.950000000000003,0)" xlink:href="#w"/><use transform="matrix(0.05,0,0,0.05,41.95,0)" xlink:href="#o"/></g><path fill="#333" d="M205 0l-28-72H64L36 0H1l101-248h38L239 0h-34zm-38-99l-47-123c-12 45-31 82-46 123h93" id="x"/><path fill="#333" d="M85-194c31 0 48 13 60 33l-1-100h32l1 261h-30c-2-10 0-23-3-31C134-8 116 4 85 4 32 4 16-35 15-94c0-66 23-100 70-100zm9 24c-40 0-46 34-46 75 0 40 6 74 45 74 42 0 51-32 51-76 0-42-9-74-50-73" id="y"/><path fill="#333" d="M210-169c-67 3-38 105-44 169h-31v-121c0-29-5-50-35-48C34-165 62-65 56 0H25l-1-190h30c1 10-1 24 2 32 10-44 99-50 107 0 11-21 27-35 58-36 85-2 47 119 55 194h-31v-121c0-29-5-49-35-48" id="z"/><path fill="#333" d="M59-47c-2 24 18 29 38 22v24C64 9 27 4 27-40v-127H5v-23h24l9-43h21v43h35v23H59v120" id="A"/><g id="d"><use transform="matrix(0.05,0,0,0.05,0,0)" xlink:href="#x"/><use transform="matrix(0.05,0,0,0.05,12,0)" xlink:href="#y"/><use transform="matrix(0.05,0,0,0.05,22,0)" xlink:href="#z"/><use transform="matrix(0.05,0,0,0.05,36.95,0)" xlink:href="#p"/><use transform="matrix(0.05,0,0,0.05,40.900000000000006,0)" xlink:href="#o"/><use transform="matrix(0.05,0,0,0.05,50.900000000000006,0)" xlink:href="#p"/><use transform="matrix(0.05,0,0,0.05,54.85,0)" xlink:href="#u"/><use transform="matrix(0.05,0,0,0.05,63.85,0)" xlink:href="#A"/><use transform="matrix(0.05,0,0,0.05,68.85000000000001,0)" xlink:href="#t"/><use transform="matrix(0.05,0,0,0.05,74.80000000000001,0)" xlink:href="#s"/><use transform="matrix(0.05,0,0,0.05,84.80000000000001,0)" xlink:href="#y"/><use transform="matrix(0.05,0,0,0.05,94.80000000000001,0)" xlink:href="#r"/><use transform="matrix(0.05,0,0,0.05,104.80000000000001,0)" xlink:href="#t"/></g><path fill="#333" d="M232-93c-1 65-40 97-104 97C67 4 28-28 28-90v-158h33c8 89-33 224 67 224 102 0 64-133 71-224h33v155" id="B"/><g id="e"><use transform="matrix(0.05,0,0,0.05,0,0)" xlink:href="#B"/><use transform="matrix(0.05,0,0,0.05,12.950000000000001,0)" xlink:href="#u"/><use transform="matrix(0.05,0,0,0.05,21.950000000000003,0)" xlink:href="#v"/><use transform="matrix(0.05,0,0,0.05,31.950000000000003,0)" xlink:href="#t"/></g><path fill="#333" d="M233-177c-1 41-23 64-60 70L243 0h-38l-65-103H63V0H30v-248c88 3 205-21 203 71zM63-129c60-2 137 13 137-47 0-61-80-42-137-45v92" id="C"/><path fill="#333" d="M177-190C167-65 218 103 67 71c-23-6-38-20-44-43l32-5c15 47 100 32 89-28v-30C133-14 115 1 83 1 29 1 15-40 15-95c0-56 16-97 71-98 29-1 48 16 59 35 1-10 0-23 2-32h30zM94-22c36 0 50-32 50-73 0-42-14-75-50-75-39 0-46 34-46 75s6 73 46 73" id="D"/><g id="f"><use transform="matrix(0.05,0,0,0.05,0,0)" xlink:href="#C"/><use transform="matrix(0.05,0,0,0.05,12.950000000000001,0)" xlink:href="#v"/><use transform="matrix(0.05,0,0,0.05,22.950000000000003,0)" xlink:href="#D"/><use transform="matrix(0.05,0,0,0.05,32.95,0)" xlink:href="#p"/><use transform="matrix(0.05,0,0,0.05,36.900000000000006,0)" xlink:href="#u"/><use transform="matrix(0.05,0,0,0.05,45.900000000000006,0)" xlink:href="#A"/><use transform="matrix(0.05,0,0,0.05,50.900000000000006,0)" xlink:href="#t"/><use transform="matrix(0.05,0,0,0.05,56.85,0)" xlink:href="#s"/><use transform="matrix(0.05,0,0,0.05,66.85000000000001,0)" xlink:href="#t"/></g><path fill="#333" d="M115-194c55 1 70 41 70 98S169 2 115 4C84 4 66-9 55-30l1 105H24l-1-265h31l2 30c10-21 28-34 59-34zm-8 174c40 0 45-34 45-75s-6-73-45-74c-42 0-51 32-51 76 0 43 10 73 51 73" id="E"/><g id="g"><use transform="matrix(0.05,0,0,0.05,0,0)" xlink:href="#q"/><use transform="matrix(0.05,0,0,0.05,9,0)" xlink:href="#r"/><use transform="matrix(0.05,0,0,0.05,19,0)" xlink:href="#z"/><use transform="matrix(0.05,0,0,0.05,33.95,0)" xlink:href="#E"/><use transform="matrix(0.05,0,0,0.05,43.95,0)" xlink:href="#t"/><use transform="matrix(0.05,0,0,0.05,49.900000000000006,0)" xlink:href="#s"/><use transform="matrix(0.05,0,0,0.05,59.900000000000006,0)" xlink:href="#u"/></g><path fill="#333" d="M212-179c-10-28-35-45-73-45-59 0-87 40-87 99 0 60 29 101 89 101 43 0 62-24 78-52l27 14C228-24 195 4 139 4 59 4 22-46 18-125c-6-104 99-153 187-111 19 9 31 26 39 46" id="F"/><path fill="#333" d="M101-234c-31-9-42 10-38 44h38v23H63V0H32v-167H5v-23h27c-7-52 17-82 69-68v24" id="G"/><path fill="#333" d="M84 4C-5 8 30-112 23-190h32v120c0 31 7 50 39 49 72-2 45-101 50-169h31l1 190h-30c-1-10 1-25-2-33-11 22-28 36-60 37" id="H"/><g id="h"><use transform="matrix(0.05,0,0,0.05,0,0)" xlink:href="#F"/><use transform="matrix(0.05,0,0,0.05,12.950000000000001,0)" xlink:href="#r"/><use transform="matrix(0.05,0,0,0.05,22.950000000000003,0)" xlink:href="#o"/><use transform="matrix(0.05,0,0,0.05,32.95,0)" xlink:href="#G"/><use transform="matrix(0.05,0,0,0.05,37.95,0)" xlink:href="#p"/><use transform="matrix(0.05,0,0,0.05,41.900000000000006,0)" xlink:href="#D"/><use transform="matrix(0.05,0,0,0.05,51.900000000000006,0)" xlink:href="#H"/><use transform="matrix(0.05,0,0,0.05,61.900000000000006,0)" xlink:href="#t"/><use transform="matrix(0.05,0,0,0.05,67.85000000000001,0)" xlink:href="#s"/><use transform="matrix(0.05,0,0,0.05,77.85000000000001,0)" xlink:href="#q"/><use transform="matrix(0.05,0,0,0.05,86.85000000000001,0)" xlink:href="#p"/><use transform="matrix(0.05,0,0,0.05,90.80000000000001,0)" xlink:href="#w"/><use transform="matrix(0.05,0,0,0.05,100.80000000000001,0)" xlink:href="#o"/></g><g id="i"><use transform="matrix(0.05,0,0,0.05,0,0)" xlink:href="#C"/><use transform="matrix(0.05,0,0,0.05,12.950000000000001,0)" xlink:href="#v"/><use transform="matrix(0.05,0,0,0.05,22.950000000000003,0)" xlink:href="#D"/><use transform="matrix(0.05,0,0,0.05,32.95,0)" xlink:href="#p"/><use transform="matrix(0.05,0,0,0.05,36.900000000000006,0)" xlink:href="#u"/><use transform="matrix(0.05,0,0,0.05,45.900000000000006,0)" xlink:href="#A"/><use transform="matrix(0.05,0,0,0.05,50.900000000000006,0)" xlink:href="#t"/><use transform="matrix(0.05,0,0,0.05,56.85,0)" xlink:href="#s"/><use transform="matrix(0.05,0,0,0.05,66.85000000000001,0)" xlink:href="#t"/></g><path fill="#333" d="M108 0H70L1-190h34L89-25l56-165h34" id="I"/><g id="j"><use transform="matrix(0.05,0,0,0.05,0,0)" xlink:href="#p"/><use transform="matrix(0.05,0,0,0.05,3.95,0)" xlink:href="#o"/><use transform="matrix(0.05,0,0,0.05,13.949999999999998,0)" xlink:href="#I"/><use transform="matrix(0.05,0,0,0.05,22.95,0)" xlink:href="#v"/><use transform="matrix(0.05,0,0,0.05,32.95,0)" xlink:href="#o"/><use transform="matrix(0.05,0,0,0.05,42.95,0)" xlink:href="#A"/><use transform="matrix(0.05,0,0,0.05,47.95,0)" xlink:href="#s"/><use transform="matrix(0.05,0,0,0.05,57.95,0)" xlink:href="#t"/><use transform="matrix(0.05,0,0,0.05,63.900000000000006,0)" xlink:href="#p"/><use transform="matrix(0.05,0,0,0.05,67.85000000000001,0)" xlink:href="#r"/></g><path fill="#333" d="M30-248c118-7 216 8 213 122C240-48 200 0 122 0H30v-248zM63-27c89 8 146-16 146-99s-60-101-146-95v194" id="J"/><path fill="#333" d="M106-169C34-169 62-67 57 0H25v-261h32l-1 103c12-21 28-36 61-36 89 0 53 116 60 194h-32v-121c2-32-8-49-39-48" id="K"/><path fill="#333" d="M115-194c53 0 69 39 70 98 0 66-23 100-70 100C84 3 66-7 56-30L54 0H23l1-261h32v101c10-23 28-34 59-34zm-8 174c40 0 45-34 45-75 0-40-5-75-45-74-42 0-51 32-51 76 0 43 10 73 51 73" id="L"/><g id="k"><use transform="matrix(0.05,0,0,0.05,0,0)" xlink:href="#J"/><use transform="matrix(0.05,0,0,0.05,12.950000000000001,0)" xlink:href="#s"/><use transform="matrix(0.05,0,0,0.05,22.950000000000003,0)" xlink:href="#u"/><use transform="matrix(0.05,0,0,0.05,31.950000000000003,0)" xlink:href="#K"/><use transform="matrix(0.05,0,0,0.05,41.95,0)" xlink:href="#L"/><use transform="matrix(0.05,0,0,0.05,51.95,0)" xlink:href="#r"/><use transform="matrix(0.05,0,0,0.05,61.95,0)" xlink:href="#s"/><use transform="matrix(0.05,0,0,0.05,71.95,0)" xlink:href="#t"/><use transform="matrix(0.05,0,0,0.05,77.9,0)" xlink:href="#y"/></g><g id="l"><use transform="matrix(0.05,0,0,0.05,0,0)" xlink:href="#B"/><use transform="matrix(0.05,0,0,0.05,12.950000000000001,0)" xlink:href="#u"/><use transform="matrix(0.05,0,0,0.05,21.950000000000003,0)" xlink:href="#H"/><use transform="matrix(0.05,0,0,0.05,31.950000000000003,0)" xlink:href="#s"/><use transform="matrix(0.05,0,0,0.05,41.95,0)" xlink:href="#t"/><use transform="matrix(0.05,0,0,0.05,47.900000000000006,0)" xlink:href="#p"/><use transform="matrix(0.05,0,0,0.05,51.85,0)" xlink:href="#r"/><use transform="matrix(0.05,0,0,0.05,61.85,0)" xlink:href="#u"/></g><path fill="#333" d="M34 0v-190h32V0H34zM24-211c8-23 27-35 38-54h36v5l-58 49H24" id="M"/><path fill="#333" d="M24 0v-261h32V0H24" id="N"/><g id="m"><use transform="matrix(0.05,0,0,0.05,0,0)" xlink:href="#x"/><use transform="matrix(0.05,0,0,0.05,12,0)" xlink:href="#t"/><use transform="matrix(0.05,0,0,0.05,17.95,0)" xlink:href="#A"/><use transform="matrix(0.05,0,0,0.05,22.95,0)" xlink:href="#M"/><use transform="matrix(0.05,0,0,0.05,27.950000000000003,0)" xlink:href="#q"/><use transform="matrix(0.05,0,0,0.05,36.95,0)" xlink:href="#H"/><use transform="matrix(0.05,0,0,0.05,46.95,0)" xlink:href="#N"/><use transform="matrix(0.05,0,0,0.05,50.900000000000006,0)" xlink:href="#r"/><use transform="matrix(0.05,0,0,0.05,60.900000000000006,0)" xlink:href="#u"/></g></defs></g></svg>