<svg xmlns="http://www.w3.org/2000/svg" xmlns:xlink="http://www.w3.org/1999/xlink" xmlns:lucid="lucid" width="1668.75" height="1083.48"><g transform="translate(-127.01541097894511 -207.3764237640894)" lucid:page-tab-id="deW5aQtUqbBg"><path d="M589.55 1019.12c0 7.8-6.32 14.13-14.12 14.13-7.8 0-14.13-6.32-14.13-14.13 0-7.8 6.33-14.12 14.13-14.12 7.8 0 14.12 6.32 14.12 14.12z" stroke="#5e5e5e" stroke-width="3" fill="#fff"/><path d="M575.43 1033.25v33.55c0 3.3 1.5 8.24 3.32 11l26.68 40.2m-30-45.2l-30 45.2m0-70.63h60" stroke="#5e5e5e" stroke-width="3" fill="none"/><path d="M545.43 1011c0-3.3 2.7-6 6-6h48c3.3 0 6 2.7 6 6v123c0 3.3-2.7 6-6 6h-48c-3.3 0-6-2.7-6-6z" fill="none"/><use xlink:href="#a" transform="matrix(1,0,0,1,465.42999157277086,1118) translate(72.32098765432099 17.77777777777778)"/><path d="M1024.94 1222.48c-9.76 0-17.67-7.92-17.67-17.7 0-9.75 7.9-17.68 17.67-17.68 9.75 0 17.66 7.93 17.66 17.7 0 9.76-7.9 17.68-17.66 17.68zm0-31.95c-7.88 0-14.28 6.4-14.28 14.26 0 7.88 6.4 14.3 14.28 14.3 7.88 0 14.27-6.42 14.27-14.3 0-7.86-6.38-14.27-14.26-14.27z" stroke="#fff" stroke-opacity="0" fill="#4c535d"/><path d="M1019.04 1216.1c-.3 0-.56-.07-.83-.2-.53-.33-.86-.87-.86-1.52v-19.16c0-.95.78-1.7 1.72-1.7.32 0 .6.1.9.25l15.43 9.62c.5.3.8.82.8 1.43 0 .6-.3 1.13-.8 1.45l-15.45 9.57c-.3.18-.57.24-.9.24zm1.72-17.8v13.03l10.5-6.52z" stroke="#fff" stroke-opacity="0" fill="#4c535d"/><path d="M1061.83 1241.66h-72.8c-1.92 0-3.6-1.58-3.6-3.54v-68.22c0-1.96 1.68-3.54 3.6-3.54h72.8c2 0 3.6 1.58 3.6 3.54v68.22c0 1.96-1.6 3.54-3.6 3.54zm-72.8-71.9c-.08 0-.16.06-.16.14v68.22c0 .08.08.23.16.15h72.8c.08 0 .16-.07.16-.15v-68.22c0-.08-.1-.15-.17-.15z" stroke="#fff" stroke-opacity="0" fill="#4c535d"/><path d="M1003.1 1182.55h-8c-.92 0-1.7-.76-1.7-1.7v-6.4c0-.93.78-1.7 1.7-1.7h8c.94 0 1.7.77 1.7 1.7v6.4c0 .94-.76 1.7-1.7 1.7zm-6.28-3.4h4.58v-3h-4.58zM1020.65 1182.55h-8c-.93 0-1.7-.76-1.7-1.7v-6.4c0-.93.77-1.7 1.7-1.7h8c.94 0 1.7.77 1.7 1.7v6.4c0 .94-.76 1.7-1.7 1.7zm-6.28-3.4h4.57v-3h-4.57zM1038.2 1182.55h-8c-.93 0-1.7-.76-1.7-1.7v-6.4c0-.93.77-1.7 1.7-1.7h8c.94 0 1.7.77 1.7 1.7v6.4c0 .94-.76 1.7-1.7 1.7zm-6.28-3.4h4.57v-3h-4.58zM1055.74 1182.55h-7.96c-.94 0-1.7-.76-1.7-1.7v-6.4c0-.93.76-1.7 1.7-1.7h7.96c.95 0 1.7.77 1.7 1.7v6.4c0 .94-.75 1.7-1.7 1.7zm-6.26-3.4h4.57v-3h-4.57zM1003.1 1235.27h-8c-.92 0-1.7-.77-1.7-1.7v-6.4c0-.94.78-1.7 1.7-1.7h8c.94 0 1.7.76 1.7 1.7v6.4c0 .93-.76 1.7-1.7 1.7zm-6.28-3.4h4.58v-3h-4.58zM1020.65 1235.27h-8c-.93 0-1.7-.77-1.7-1.7v-6.4c0-.94.77-1.7 1.7-1.7h8c.94 0 1.7.76 1.7 1.7v6.4c0 .93-.76 1.7-1.7 1.7zm-6.28-3.4h4.57v-3h-4.57zM1038.2 1235.27h-8c-.93 0-1.7-.77-1.7-1.7v-6.4c0-.94.77-1.7 1.7-1.7h8c.94 0 1.7.76 1.7 1.7v6.4c0 .93-.76 1.7-1.7 1.7zm-6.28-3.4h4.57v-3h-4.58zM1055.74 1235.27h-7.96c-.94 0-1.7-.77-1.7-1.7v-6.4c0-.94.76-1.7 1.7-1.7h7.96c.95 0 1.7.76 1.7 1.7v6.4c0 .93-.75 1.7-1.7 1.7zm-6.26-3.4h4.57v-3h-4.57z" stroke="#fff" stroke-opacity="0" fill="#4c535d"/><path d="M1172.43 1075.48c-26 0-47.22-21.2-47.22-47.2 0-26 21.22-47.2 47.23-47.2 26.02 0 47.22 21.2 47.22 47.2 0 26-21.2 47.2-47.22 47.2zm-11.58-24.6c3.46 11.6 8.27 17.4 11.58 17.4 3.3 0 8.72-5.2 11.58-17.4-3.9-.4-7.8-.8-11.57-.8-3.76 0-7.67.4-11.58.8zm-17.3 4.4c4.37 4.8 9.63 8.2 15.35 10.2-2.4-4-3.76-8.2-5.26-13.6-3.76 1-7.22 2-10.08 3.4zm48.13-3.4c-1.35 5.4-3.3 9.8-5.26 13.6 5.7-2 11.12-5.8 15.34-10.6-2.86-1-6.17-2-10.08-3zm-58.8-20.2c.45 6.2 2.4 11.6 5.87 17.4 3.76-2 8.12-3.4 12.93-4.4-.9-4.4-.9-8.6-1.35-13h-17.45zm60.3 13.6c4.82.8 9.78 2.2 13.1 4.2 3.3-5.8 5.25-11 5.7-17.4h-17.74c.45 4.4-.15 8.4-1.06 13.2zm-35.18-13.6c0 3.8.45 7.8 1.05 11.6 4.36-.4 9.17-1 13.53-1 4.36 0 8.57.4 13.54 1 .45-3.8.9-7.8.9-11.6H1158zm54.43-7.6c-.45-6.8-2.86-13-6.76-18.8-3.76 2-8.13 3.4-12.5 4.4.92 4.2 1.37 9.2 1.37 14.4h17.9zm-25.1 0c0-4.4-.46-9.2-1.36-13-4.36.4-8.73 1-13.1 1-4.35 0-8.7-.6-12.92-1-1.05 3.8-1.5 8.6-1.5 13h28.87zm-36.55 0c0-4.8.45-9.8 1.35-14.4-4.8-1-8.72-2.4-12.48-4.4-3.9 5.8-6.32 12-7.22 18.8h18.35zm10.67-19.8c3.76.4 7.67 1 11.43 1 3.9 0 7.82-.6 11.58-1-3.3-11.2-8.12-16-11.58-16-3.76 0-8.57 5-11.43 16zm-17-4.4c2.87 1 6.33 2.4 9.8 2.8 1.34-4.8 2.84-8.6 5.25-12-5.86 2-10.68 4.8-15.04 9.2zm41.97-9.2c1.95 3.4 3.76 7.8 5.26 12 3.46-.8 6.77-1.8 9.77-2.8-4.96-4.4-9.77-7.2-15.03-9.2z" stroke="#000" stroke-opacity="0" fill="#6f7681"/><path d="M1117.55 1025.48c1.05-27 21.65-49.2 48.27-52.6v-87.6c0-5.4-4.37-9.8-9.78-9.8h-77c-5.4 0-9.77 4.4-9.77 9.8v187.8h72.34c-7.2-4.8-13.08-11.4-17.44-19.2h-40.45v-9.8h36.1c-.9-2.8-1.35-6.2-1.95-9.6h-34.14v-9.6h33.7v.4h.15v.2zm-33.7-120.6h67.38v9.8h-67.37v-9.8z" stroke="#000" stroke-opacity="0" fill="#6f7681"/><path d="M725.43 918.24v120H903.5v-120H725.42zm170.4 112.32H733.27v-85.32h162.58v85.32z" stroke="#000" stroke-opacity="0" fill="#4c535d"/><path d="M779.56 991.8H752.5v27.12h27.06V991.8zM781.52 986.03h-30.98v-30.95h30.98v30.95zm-27.07-3.95h23.33V958.9h-23.33v23.18zM828 1020.84h-31v-30.97h31v30.97zm-27.07-3.97h23.15v-23.15h-23.15v23.15zM826.04 957h-27.07v27.12h27.07V957zM872.5 991.8h-27.05v27.12h27.06V991.8zM874.47 986.03H843.5v-30.95h30.97v30.95zm-27.07-3.95h23.15V958.9H847.4v23.18zM1273.4 896.7c-4.93 0-9-4.02-9-8.95 0-4.92 4.07-8.74 9-8.74 4.67 0 8.75 4.03 8.75 8.75 0 4.93-4.08 8.95-8.76 8.95zm17.15-30.77l-7.32 3.62-4.2-1.9-2.76-7.65h-6.24l-2.52 7.64-4.2 1.9-7.43-3.4-4.56 4.42 3.6 7.24-1.8 4.32-7.67 2.62v6.33l7.68 2.52 1.8 4.2-3.6 7.45 4.57 4.53 7.2-3.62 4.2 1.8 2.76 7.65h6.24l2.52-7.63 4.3-1.8 7.45 3.4 4.44-4.52-3.6-7.24 1.8-4.52 7.67-2.6v-6.35l-7.68-2.5-1.8-4.23 3.6-7.44-4.45-4.23z" stroke="#000" stroke-opacity="0" fill="#4c535d"/><path d="M1326.07 934.2c-6.96 0-12.6-5.72-12.6-12.66s5.64-12.57 12.6-12.57 12.36 5.63 12.36 12.57c.24 7.04-5.4 12.67-12.36 12.67zm24.48-43.73l-10.08 5.23-6.12-2.52-3.84-10.86h-9l-3.35 10.86-6.36 2.52-10.33-4.93-6.36 6.34 5.17 10.16-2.52 6.04-10.8 3.82v8.95l10.8 3.62 2.76 6.02-4.9 10.36 6.23 6.33 10.2-5.12 6.12 2.42 3.84 10.86h9l3.6-10.86 6-2.42 10.3 4.93 6.37-6.32-5.16-10.16 2.53-6.34 10.8-3.82v-9.05l-10.8-3.6-2.52-6.04 4.93-10.36-6.48-6.03z" stroke="#000" stroke-opacity="0" fill="#4c535d"/><use xlink:href="#b" transform="matrix(1,0,0,1,1215.4299915727709,969.5571847507331) translate(16.599999999999994 14.4)"/><use xlink:href="#c" transform="matrix(1,0,0,1,1215.4299915727709,969.5571847507331) translate(74.55 14.4)"/><use xlink:href="#d" transform="matrix(1,0,0,1,1215.4299915727709,969.5571847507331) translate(99.55 14.4)"/><path d="M606.43 1045.87h53c3.3 0 6-2.68 6-6v-53c0-3.3 2.7-6 6-6h35.5" stroke="#5e5e5e" stroke-width="2" fill="none"/><path d="M606.46 1046.88h-1.03v-1h-3v-1h4.03z" stroke="#5e5e5e" stroke-width=".05" fill="#5e5e5e"/><path d="M722.2 980.88l-14.27 4.63v-9.26z" stroke="#5e5e5e" stroke-width="2" fill="#5e5e5e"/><path d="M904.5 983.28h146.27" stroke="#5e5e5e" stroke-width="2" fill="none"/><path d="M904.52 984.27h-1.03v-2h1.02z" stroke="#5e5e5e" stroke-width=".05" fill="#5e5e5e"/><path d="M1066.04 983.28l-14.27 4.63v-9.26z" stroke="#5e5e5e" stroke-width="2" fill="#5e5e5e"/><path d="M1165.82 935.55v-21.78c0-3.32 2.68-6 6-6h63.52" stroke="#5e5e5e" stroke-width="2" fill="none"/><path d="M1166.82 939.55h-1v-4.03h1z" stroke="#5e5e5e" stroke-width=".05" fill="#5e5e5e"/><path d="M1250.6 907.77l-14.26 4.63v-9.27z" stroke="#5e5e5e" stroke-width="2" fill="#5e5e5e"/><path d="M1355.22 911.9h33c3.3 0 6 2.7 6 6v102c0 3.32-2.7 6-6 6h-150.17" stroke="#5e5e5e" stroke-width="2" fill="none"/><path d="M1355.25 912.9h-.62l-.83-2h1.45z" stroke="#5e5e5e" stroke-width=".05" fill="#5e5e5e"/><path d="M1222.78 1025.9l14.27-4.63v9.27z" stroke="#5e5e5e" stroke-width="2" fill="#5e5e5e"/><path d="M1135.3 1074.08v139.18c0 3.32-2.7 6-6 6h-45.37" stroke="#5e5e5e" stroke-width="2" fill="none"/><path d="M1136.3 1074.1h-2v-1.02h2z" stroke="#5e5e5e" stroke-width=".05" fill="#5e5e5e"/><path d="M1068.67 1219.26l14.26-4.63v9.27z" stroke="#5e5e5e" stroke-width="2" fill="#5e5e5e"/><path d="M867.26 1160h-106.2c-3.48 0-6.6 2.88-6.6 6.65v75.16c0 3.56 2.88 7 6.6 7h36.36c3.84 13.85 2.16 15.07-20.88 15.07v6.98h75.84v-6.98c-23.04 0-26.28-1.22-22.44-15.08h37.2c3.48 0 7.32-3.22 7.32-6.44v-75.7c0-3.78-3.72-6.66-7.2-6.66zm-2.28 78.93H763.34l.6-69.84 101.04.32v69.5z" stroke="#000" stroke-opacity="0" fill="#4c535d"/><path d="M794.54 1190.37v.23l18.36 10.75 18.6-10.75v-.23l-18.6-10.75-18.36 10.75zM833.42 1215.98v-21.17l-18.96 10.76v21.06l18.96-10.64zM792.38 1215.98l18.96 10.64v-21.06l-18.96-10.75V1216z" stroke="#000" stroke-opacity="0" fill="#4c535d"/><path d="M984.43 1204h-91.47" stroke="#5e5e5e" stroke-width="2" fill="none"/><path d="M985.43 1205h-1.03v-2h1.03z" stroke="#5e5e5e" stroke-width=".05" fill="#5e5e5e"/><path d="M877.7 1204l14.26-4.63v9.27z" stroke="#5e5e5e" stroke-width="2" fill="#5e5e5e"/><path d="M753.46 1204.8h-73.6c-3.3 0-6-2.7-6-6v-95.84c0-3.3-2.68-6-6-6h-56.1" stroke="#5e5e5e" stroke-width="2" fill="none"/><path d="M754.46 1205.8h-1.02v-2h1.02z" stroke="#5e5e5e" stroke-width=".05" fill="#5e5e5e"/><path d="M596.5 1096.96l14.27-4.63v9.27z" stroke="#5e5e5e" stroke-width="2" fill="#5e5e5e"/><path d="M1091.6 587.38h-75.5c-8.8 0-16.1 7.32-16.1 16.08v87.84c0 8.76 7.3 16.08 16.1 16.08h83.6c8.8 0 16.1-7.32 16.1-16.08v-80.16l-24.2-23.76zm14.24 103.92c0 3.48-2.66 6.12-6.14 6.12h-83.6c-3.48 0-6.14-2.64-6.14-6.12v-87.84c0-3.48 2.66-6.12 6.14-6.12h70.63v19.56h19.1v74.4z" stroke="#000" stroke-opacity="0" fill="#4c535d"/><path d="M1083.95 674.38v.48c-.34 2.28-3 4.56-5.32 4.56h-19.92c-2.3 0-3.8-2.28-3.46-4.56v-.48c.7-2.28 3-4.2 5.32-4.2h19.92c2.78-.36 4.28 1.56 3.47 4.2zm-53.26 3.12c-1.63-1.92-.82-4.56 1.5-6.12l35.3-24.6-22.7-24.84c-1.5-1.56-.68-4.2 1.64-6.24h.34c1.16-.72 3.48-1.08 4.98.84l21.9 24.48 2.65 2.76.36.36c1.62 1.56 1.97 4.92.46 6.48l-3.82 2.76-35.32 24.48c-2.66 1.56-5.8 1.56-7.3-.36z" stroke="#000" stroke-opacity="0" fill="#4c535d"/><use xlink:href="#e" transform="matrix(1,0,0,1,969.9999999999999,716.3764237640894) translate(27.049999999999997 14.4)"/><use xlink:href="#f" transform="matrix(1,0,0,1,969.9999999999999,716.3764237640894) translate(93.05 14.4)"/><use xlink:href="#g" transform="matrix(1,0,0,1,969.9999999999999,716.3764237640894) translate(103.05 14.4)"/><path d="M1333.74 378.35h-38.42v-8.03h35.16c-.78-2.5-1.56-5.36-1.56-8.2h-33.08v-8.2h32.7c.77-21.77 16.27-39.17 36.7-44.2V235.6c0-4.52-3.63-8.2-8.2-8.2h-65.37c-4.56 0-8.2 3.68-8.2 8.2v159.17h65.76c-6.9-4.18-11.85-9.87-15.5-16.4zm-38.42-126.54h57.17v8.2h-57.18v-8.2z" stroke="#000" stroke-opacity="0" fill="#4c535d"/><path d="M1374.5 379.2c-7.68 0-13.8-3.2-17.97-8.88v11.38l-6.5-6.53v-17.24h17.18l6.52 6.53h-12.63c2.85 4.52 7.8 6.53 13.92 6.53 7.68 0 14.2-5.7 15.9-13.07h8.2c-2.1 12.4-12.38 21.26-24.62 21.26zm24.1-26.46h-16.3l-6.9-6.53h12.25c-2.86-4.5-7.8-6.18-13.54-6.18-7.67 0-14.2 5.7-15.88 12.72h-8.2c1.56-11.88 11.85-20.92 24.1-20.92 7.67 0 13.4 2.84 17.96 8.54V329.3l6.5 7.04v16.4zM1375 317.1c-21.23 0-38.8 17.56-38.8 38.82s17.57 38.83 38.8 38.83c21.1 0 38.68-17.57 38.68-38.83 0-21.26-17.58-38.83-38.68-38.83z" stroke="#000" stroke-opacity="0" fill="#4c535d"/><use xlink:href="#h" transform="matrix(1,0,0,1,1253.4659874343586,403.7528475281788) translate(60.5 14.4)"/><path d="M1199.92 525.2h-16.67c-11.2-2.8-19.78-11.68-19.78-23.04 0-9.73 6.1-18.36 14.7-21.7 0-1.1-.2-1.96-.2-3.04 0-16.74 13.36-30.04 30.03-30.04 9.22 0 17.5 4.2 23.4 11.12 3.32-1.7 7.26-2.5 10.9-2.5 13.04 0 24.43 11.7 24.74 24.45l-44.85-18.37-22.28 13.62v49.5z" stroke="#000" stroke-opacity="0" fill="#4c535d"/><path d="M1283.47 537.45l-61.54 11.65.3-43.08 61.24 11.4v20.03zm-61.54-69.78l61.54 23.04v23.38l-61.23-13.03" stroke="#000" stroke-opacity="0" fill="#883419"/><path d="M1222.2 501.02l-16.7 7.76v-30.8l16.7-10.04m58.48 43.35l-55.7-12.8V471l55.7 20.53v19.76zm-30.6-9.97l5.57 1.33v-18.02l-5.56-1.96v18.65zm-5.56-20.06l-5.63-1.96v19.2l5.62 1.66v-18.9zm16.7 23.12l5.55 1.32v-17.24l-5.56-1.88v17.8zm-33.46-8.95l5.56 1.4v-19.74l-5.56-1.95v20.3zm50.14-3.05l-5.56-1.96v16.7l5.56 1.4V492.4zm-52.92 18.34v35.58l55.7-10.27v-17l-55.7-8.3zm2.78 31.43v-27.5l5.56.53v25.87l-5.56 1.1zm16.76-2.83l-5.63 1.18V516.3l5.62.86v22.18zm5.57-.78V517.4l5.55.55v19.5l-5.56 1.1zm16.67-3.06l-5.56.8v-17.8l5.57.86v16.14zm11.43-1.72l-5.86.86v-14.42l5.26.55.6 13z" stroke="#000" stroke-opacity="0" fill="#a65339"/><path d="M1211.07 500.45l-2.78 1.68v-21.96l2.77-1.4v21.68zm5.57-25l-2.78 1.94v21.4l2.78-1.4v-21.95z" stroke="#000" stroke-opacity="0" fill="#883419"/><path d="M1205.5 539.36v-25.28l16.7-8.06v43.36" stroke="#000" stroke-opacity="0" fill="#a65339"/><path d="M1210.8 539.37l-2.5-1.4V516.6l2.5-1.14v23.9zm5.84-26.68l-2.78 1.4v26.93l2.78 1.4V512.7z" stroke="#000" stroke-opacity="0" fill="#883419"/><path d="M1277.9 494.35l-50.12-16.68v-2.22l50.12 17.24v1.65zm-.28 26.4l-49.84-6.13v2.22l49.84 5.86v-1.94zm-60.98-42.52v-2.78l-8.07 4.44v2.2l8.07-3.87zm-8.35 40.02l8.34-3.07v-2.22l-8.35 3.64v1.65z" stroke="#000" stroke-opacity="0" fill="#6d1900"/><path d="M1283.47 491v46.4l-61.26 11.7 46.5-63.93 14.77 5.82z" stroke="#000" stroke-opacity="0" fill="#f29e83" fill-opacity=".2"/><path d="M1221.2 545.96l-12.87-8-.9-15.27h-23.44l-14.14-10.28-4.02-11.02 8.4-14.32 7.8-6.3 4.02-19.14 12.28-9.6 14.24-.3 14 6.6 4.03 3.87 13.8-2.82 10.56 4.15 6.54 7.63 3.9 6.78.93 7.92 14.35 5.74v44.47z" stroke="#000" stroke-opacity="0" stroke-width="0" fill-opacity="0"/><use xlink:href="#i" transform="matrix(1,0,0,1,1133.4659874343583,558.3764237640894) translate(61.55 14.4)"/><path d="M1751.57 290.84h-75.48c-8.8 0-16.1 7.32-16.1 16.08v87.84c0 8.76 7.3 16.08 16.1 16.08h83.57c8.8 0 16.1-7.32 16.1-16.08V314.6l-24.2-23.76zm14.24 103.8c0 3.48-2.65 6.12-6.13 6.12h-83.58c-3.48 0-6.14-2.64-6.14-6.12v-88.08c0-3.48 2.66-6.12 6.13-6.12h70.5v19.44h19.1v74.76h.1z" stroke="#000" stroke-opacity="0" fill="#4c535d"/><path d="M1694.85 332.24v8.04c0 4.56-1.86 6.96-5.33 6.96v6.84c3.82 0 5.33 2.4 5.33 6.6v8.76c0 4.68 1.27 7.68 3.12 9.6 2.32 2.28 6.14 3.48 11.92 3.48v-6.96c-1.97 0-3.48-.36-4.64-1.44-.8-.84-1.15-2.76-1.15-5.04v-7.32c0-5.76-1.96-9.6-5.32-11.04 3.82-1.56 5.33-5.04 5.33-10.68v-7.8c0-4.2 1.86-6 5.8-6v-6.96c-5.8 0-9.6 1.08-11.93 3.48-1.85 1.44-3.12 4.8-3.12 9.48zM1736.98 340.28v-8.52c0-4.56-1.15-7.68-3-9.96-2.32-2.28-6.14-3.36-11.93-3.36v6.84c3.82 0 5.8 1.92 5.8 6.12v7.2c0 6.12 1.96 9.6 5.3 11.16-3.8 1.44-5.3 4.92-5.3 10.68v7.68c0 2.4-.36 3.84-1.17 5.04-.7 1.2-2.3 1.44-4.63 1.44v6.96c5.8 0 9.6-1.2 11.92-3.48 1.86-1.92 3-5.28 3-9.96v-8.4c0-4.56 1.98-6.96 5.46-6.96v-6.48c-3.48.84-5.45-1.44-5.45-6z" stroke="#000" stroke-opacity="0" fill="#4c535d"/><use xlink:href="#j" transform="matrix(1,0,0,1,1629.9999999999998,419.8424111984481) translate(46.05 14.4)"/><path d="M1511.6 410.84h-75.5c-8.8 0-16.1 7.32-16.1 16.08v87.84c0 8.76 7.3 16.08 16.1 16.08h83.6c8.8 0 16.1-7.32 16.1-16.08V434.6l-24.2-23.76zm14.24 103.92c0 3.48-2.66 6.12-6.14 6.12h-83.6c-3.48 0-6.14-2.64-6.14-6.12v-87.84c0-3.48 2.66-6.12 6.14-6.12h70.63v19.56h19.1v74.4z" stroke="#000" stroke-opacity="0" fill="#4c535d"/><path d="M1503.95 497.84v.48c-.34 2.28-3 4.56-5.32 4.56h-19.92c-2.3 0-3.8-2.28-3.46-4.56v-.48c.7-2.28 3-4.2 5.32-4.2h19.92c2.78-.36 4.28 1.56 3.47 4.2zm-53.26 3.12c-1.63-1.92-.82-4.56 1.5-6.12l35.3-24.6-22.7-24.84c-1.5-1.56-.68-4.2 1.64-6.24h.34c1.16-.72 3.48-1.08 4.98.84l21.9 24.48 2.65 2.76.36.36c1.62 1.56 1.97 4.92.46 6.48l-3.82 2.76-35.32 24.48c-2.66 1.56-5.8 1.56-7.3-.36z" stroke="#000" stroke-opacity="0" fill="#4c535d"/><use xlink:href="#k" transform="matrix(1,0,0,1,1390.0000000000002,539.8424111984481) translate(56.025 14.4)"/><path d="M1550.5 685.78h53.5v9.96h-53.5v-9.96zM1550.5 704.86h53.5v9.84h-53.5v-9.84zM1550.5 723.58h53.5v9.84h-53.5v-9.84z" stroke="#000" stroke-opacity="0" fill="#2a3282"/><path d="M1611.3 647.38h-75.35c-8.8 0-15.95 7.2-15.95 15.96v88.08c0 8.76 7.16 15.96 15.95 15.96h83.55c8.9 0 16.06-7.2 16.06-15.96v-80.16l-24.26-23.88zm8.2 110.4h-83.55c-3.35 0-6.13-2.64-6.13-6.36v-88.08c0-3.36 2.78-6.12 6.13-6.12h70.26v19.8h19.42v74.64c0 3.48-2.65 6.12-6.12 6.12z" stroke="#000" stroke-opacity="0" fill="#2a3282"/><use xlink:href="#l" transform="matrix(1,0,0,1,1490,776.3764237640894) translate(42.074999999999996 14.4)"/><path d="M1058.7 586.38v-82c0-3.32 2.7-6 6-6h80.7" stroke="#5e5e5e" stroke-width="2" fill="none"/><path d="M1059.7 587.38h-2v-1.03h2z" stroke="#5e5e5e" stroke-width=".05" fill="#5e5e5e"/><path d="M1160.67 498.38L1146.4 503v-9.26z" stroke="#5e5e5e" stroke-width="2" fill="#5e5e5e"/><path d="M1223.47 450.9V315.4c0-3.32 2.68-6 6-6h35.5" stroke="#5e5e5e" stroke-width="2" fill="none"/><path d="M1224.47 452.5l-2-1.18v-.43h2z" stroke="#5e5e5e" stroke-width=".05" fill="#5e5e5e"/><path d="M1280.23 309.4l-14.27 4.63v-9.27z" stroke="#5e5e5e" stroke-width="2" fill="#5e5e5e"/><path d="M1659 353.84h-55.1c-3.3 0-6 2.7-6 6v108c0 3.32-2.7 6-6 6h-37.6" stroke="#5e5e5e" stroke-width="2" fill="none"/><path d="M1660 354.84h-1.03v-2h1.03z" stroke="#5e5e5e" stroke-width=".05" fill="#5e5e5e"/><path d="M1539.04 473.84l14.26-4.63v9.28z" stroke="#5e5e5e" stroke-width="2" fill="#5e5e5e"/><path d="M1577.55 646.38V482c0-3.3-2.7-6-6-6h-17.25" stroke="#5e5e5e" stroke-width="2" fill="none"/><path d="M1578.55 647.38h-2v-1.03h2z" stroke="#5e5e5e" stroke-width=".05" fill="#5e5e5e"/><path d="M1539.04 476l14.26-4.63v9.27z" stroke="#5e5e5e" stroke-width="2" fill="#5e5e5e"/><path d="M1751.57 487.38h-75.5c-8.8 0-16.1 7.32-16.1 16.08v87.84c0 8.88 7.3 16.08 16.1 16.08h83.6c8.92 0 16.1-7.32 16.1-16.08v-80.16l-24.2-23.76zm14.24 103.92c0 3.48-2.65 6.12-6.13 6.12h-83.6c-3.47 0-6.13-2.64-6.13-6.12v-87.84c0-3.48 2.66-6.12 6.14-6.12h70.62v19.2h19.1v74.76z" stroke="#000" stroke-opacity="0" fill="#2a3282"/><path d="M1694.83 528.78v8.04c0 4.68-1.85 6.96-5.32 6.96v6.48c3.83 0 5.33 2.28 5.33 6.48v8.88c0 4.68 1.16 7.68 3.13 9.6 2.2 2.76 6.14 3.84 11.8 3.84v-6.84c-1.84 0-3.46-.48-4.62-1.56-.7-1.2-1.5-2.64-1.5-4.92v-7.32c.46-5.76-1.5-9.6-5-11.16 3.84-1.44 5.46-4.92 5.46-10.68v-7.68c0-4.32 1.85-6.24 5.67-6.24v-6.84c-5.67 0-9.6 1.2-11.8 3.48-1.98 1.44-3.14 4.92-3.14 9.48zM1737.1 536.82v-8.4c0-4.68-1.16-7.68-3.02-9.96-2.3-1.92-6.25-3.12-11.92-3.12v6.96c3.82 0 5.67 1.92 5.67 6.12v7.32c0 6.12 1.97 9.96 5.44 11.52-3.82 1.56-5.44 4.92-5.44 10.8v7.68c0 2.28-.35 3.84-1.16 4.92-1.15 1.2-2.2 1.56-4.63 1.56v6.84c5.8 0 9.6-1.08 11.93-3.48 1.97-1.92 3-5.4 3-9.96v-8.4c0-4.56 1.98-6.84 5.45-6.84v-6.6c-3.47 0-5.33-2.28-5.33-6.96z" stroke="#000" stroke-opacity="0" fill="#2a3282"/><use xlink:href="#m" transform="matrix(1,0,0,1,1629.9838574904645,616.3764237640894) translate(45.025 14.4)"/><path d="M1658.98 549.18H1626c-3.3 0-6-2.7-6-6V482c0-3.3-2.7-6-6-6h-59.7" stroke="#5e5e5e" stroke-width="2" fill="none"/><path d="M1659.98 550.18h-1.02v-2h1.02z" stroke="#5e5e5e" stroke-width=".05" fill="#5e5e5e"/><path d="M1539.04 476l14.26-4.63v9.27z" stroke="#5e5e5e" stroke-width="2" fill="#5e5e5e"/><path d="M1419 498.38h-117.03" stroke="#5e5e5e" stroke-width="2" fill="none"/><path d="M1420 499.38h-1.03v-2h1.03z" stroke="#5e5e5e" stroke-width=".05" fill="#5e5e5e"/><path d="M1286.7 498.38l14.27-4.64V503z" stroke="#5e5e5e" stroke-width="2" fill="#5e5e5e"/><path d="M1364.13 658.38v5.9c0 2.7-7.6 7.16-21.96 9.7-8.06 1.4-16.1 2.07-24.26 2.05-29.9 0-46.4-7.73-46.4-11.68v-5.97c0 3.95 16.3 11.7 46.4 11.7 8.62.04 15.84-.54 24.37-2 14.26-2.64 21.86-7 21.86-9.7z" fill="#1e2630"/><path d="M1375.9 705.23v5.2c-.8 32.18-27.5 57.55-59.5 56.68-30.98-.85-55.7-25.6-56.5-56.67v-5.2h116z" fill-opacity="0"/><path d="M1363.74 659.47v6c-1.57 2.6-9 6.32-21.6 8.5-7.97 1.4-16.13 2.07-24.3 2.07-29.93 0-46.34-7.74-46.34-11.67v-6c0 3.93 16.32 11.67 46.35 11.67 8.62.1 15.95-.54 24.4-1.96 12.7-2.18 20-5.9 21.68-8.6m.1 87.72c.08-.22.18-.43.18-.76v9.92l-.1.43c-.08.1-.17.32-.26.54v.1l-.28.33-.37.55-.38.43-.65.44-.56.43-.64.54-.74.33-.93.54-.75.44-1.3.54-.74.33c-.73.33-1.47.55-2.3.87l-.84.22-1.85.55-1.2.3-1.76.45-1.4.33-1.94.43-1.57.23-2.14.44-1.77.2-2.4.23-1.77.22-2.87.22-1.87.22-3.24.1h-6.97c-16.87 0-29.57-2.07-38-4.8-6.12-2.17-10.57-4.57-11.04-6.3v-9.5c.46 1.75 4.35 3.93 9.82 6l-.1-.54c13.36 4.14 25.22 5.88 39.22 5.88h6.95l3.33-.1 1.76-.12 2.77-.32 1.77-.1 2.5-.34 1.58-.22 2.3-.32 10.58-2.62c.84-.33 1.67-.55 2.4-.87l2.05-.88.47-.33 1.3-.67.46-.32.92-.54.37-.32.75-.66.27-.22.55-.65v-.43l.37-.87z" fill="#1e2630"/><path d="M1317.9 647.38c8.16-.07 16.3.6 24.37 1.98 14.26 2.55 21.86 6.98 21.86 9.74 0 2.78-7.6 7.07-21.96 9.64-8.06 1.36-16.1 2.04-24.26 2-29.9 0-46.4-7.74-46.4-11.7 0-3.96 16.4-11.66 46.4-11.66z" fill="#4c535d"/><path d="M1341.57 678.17c-1.3.27-2.5.37-3.8.64-.65 0-1.3.2-2.04.3l-3.52.36c-.82 0-1.66.18-2.4.18l-4.63.28h-.84c-1.85 0-3.7.1-5.65.18h-1.2c-18.37 0-36.9-3.22-45.9-9.3v80.3c.46 1.83 4.9 4.22 11.03 6.33 8.26 2.67 21.06 4.8 37.93 4.8 30.87.08 43.76-7.46 43.76-11.5v-80.47c-4.83 3.3-12.62 6.16-22.73 7.9z" fill="#4c535d"/><use xlink:href="#n" transform="matrix(1,0,0,1,1259.8994748687173,767.3764237640894) translate(14.913580246913583 17.77777777777778)"/><path d="M1317.9 646.38v-46.45c0-3.32-2.7-6-6-6h-38.4c-3.3 0-6-2.7-6-6v-28.95" stroke="#5e5e5e" stroke-width="2" fill="none"/><path d="M1318.9 647.46l-1-.08-1 .03v-1.05h2z" stroke="#5e5e5e" stroke-width=".05" fill="#5e5e5e"/><path d="M1267.5 543.7l4.64 14.28h-9.27z" stroke="#5e5e5e" stroke-width="2" fill="#5e5e5e"/><path d="M238.6 528.27h-75.5c-8.8 0-16.08 7.32-16.08 16.08v87.84c0 8.75 7.3 16.07 16.1 16.07h83.57c8.8 0 16.08-7.32 16.08-16.08v-80.17l-24.2-23.76zm14.23 103.8c0 3.48-2.67 6.12-6.14 6.12h-83.6c-3.47 0-6.13-2.65-6.13-6.13V544c0-3.5 2.66-6.13 6.14-6.13h70.5v19.44h19.1v74.77h.13z" stroke="#000" stroke-opacity="0" fill="#4c535d"/><path d="M181.86 569.67v8.04c0 4.57-1.85 6.97-5.32 6.97v6.84c3.82 0 5.32 2.4 5.32 6.6v8.77c0 4.68 1.27 7.68 3.13 9.6 2.3 2.28 6.12 3.48 11.9 3.48V613c-1.96 0-3.46-.37-4.62-1.45-.8-.84-1.16-2.76-1.16-5.04v-7.3c0-5.77-1.97-9.6-5.32-11.05 3.82-1.56 5.32-5.04 5.32-10.68v-7.8c0-4.2 1.85-6 5.8-6v-6.96c-5.8 0-9.62 1.1-11.93 3.5-1.87 1.43-3.14 4.8-3.14 9.47zM224 577.7v-8.5c0-4.57-1.16-7.7-3-9.97-2.33-2.28-6.15-3.36-11.93-3.36v6.84c3.82 0 5.78 1.93 5.78 6.13v7.2c0 6.12 1.97 9.6 5.33 11.16-3.82 1.43-5.33 4.9-5.33 10.67v7.68c0 2.4-.34 3.84-1.15 5.04-.7 1.2-2.32 1.43-4.63 1.43V619c5.78 0 9.6-1.2 11.92-3.5 1.84-1.9 3-5.27 3-9.95v-8.4c0-4.56 1.97-6.96 5.44-6.96v-6.5c-3.47.85-5.44-1.43-5.44-6z" stroke="#000" stroke-opacity="0" fill="#4c535d"/><use xlink:href="#j" transform="matrix(1,0,0,1,117.01541097894511,657.2670062828206) translate(46.05 14.4)"/><path d="M398.7 528.27h-75.6c-8.8 0-16.08 7.32-16.08 16.08v87.84c0 8.75 7.3 16.07 16.1 16.07h83.56c8.8 0 16.1-7.32 16.1-16.08v-80.17l-24.1-23.76zm14.12 103.8c0 3.48-2.67 6.12-6.14 6.12H323.1c-3.47 0-6.13-2.65-6.13-6.13V544c0-3.5 2.66-6.13 6.14-6.13h70.5v19.56h19.22v74.64z" stroke="#000" stroke-opacity="0" fill="#4c535d"/><path d="M346.5 600.27l-15.3-8.76 15.3-9.6v-8.03l-21.77 14.88v5.4l21.76 14.16v-8.03zM374.5 562.7h-6.94l-16.1 55.7h6.5l16.54-55.7zM395.57 591.15l-15.74 8.76v8.05l21.87-14.16v-5.4l-21.87-14.9v8.05l15.74 9.6z" stroke="#000" stroke-opacity="0" fill="#4c535d"/><use xlink:href="#o" transform="matrix(1,0,0,1,277.0154109789451,657.2670062828206) translate(63.575 14.4)"/><path d="M558.6 528.27h-75.5c-8.8 0-16.1 7.32-16.1 16.08v87.84c0 8.87 7.3 16.07 16.1 16.07h83.6c8.9 0 16.1-7.32 16.1-16.08v-80.17l-24.2-23.76zm14.23 103.92c0 3.47-2.66 6.1-6.14 6.1h-83.6c-3.47 0-6.14-2.63-6.14-6.1v-87.85c0-3.48 2.67-6.12 6.14-6.12h70.63v19.2h19.1v74.76z" stroke="#000" stroke-opacity="0" fill="#4c535d"/><path d="M501.86 569.67v8.04c0 4.7-1.86 6.97-5.33 6.97v6.48c3.82 0 5.33 2.28 5.33 6.48v8.88c0 4.7 1.15 7.7 3.12 9.6 2.2 2.77 6.14 3.85 11.8 3.85v-6.84c-1.84 0-3.46-.47-4.62-1.55-.7-1.2-1.5-2.64-1.5-4.92v-7.32c.46-5.75-1.5-9.6-4.98-11.15 3.82-1.44 5.44-4.92 5.44-10.68v-7.68c0-4.33 1.85-6.25 5.67-6.25v-6.84c-5.68 0-9.62 1.2-11.82 3.5-1.97 1.43-3.12 4.9-3.12 9.47zM544.12 577.7v-8.4c0-4.67-1.16-7.67-3-9.95-2.33-1.92-6.27-3.12-11.94-3.12v6.96c3.82 0 5.67 1.9 5.67 6.1v7.33c0 6.12 1.97 9.96 5.45 11.52-3.82 1.56-5.45 4.92-5.45 10.8v7.68c0 2.28-.34 3.84-1.15 4.92-1.16 1.2-2.2 1.56-4.63 1.56v6.85c5.78 0 9.6-1.08 11.92-3.48 1.96-1.92 3-5.4 3-9.96v-8.4c0-4.55 1.97-6.83 5.44-6.83v-6.6c-3.47 0-5.32-2.28-5.32-6.96z" stroke="#000" stroke-opacity="0" fill="#4c535d"/><use xlink:href="#p" transform="matrix(1,0,0,1,437.0064928662083,657.2670062828206) translate(69.525 14.4)"/><path d="M275.86 328.27v120h178.07v-120H275.86zm170.4 112.32H283.7v-85.33h162.57v85.32z" stroke="#000" stroke-opacity="0" fill="#4c535d"/><path d="M330 401.83h-27.07v27.12H330v-27.12zM331.95 396.07h-30.98V365.1h30.98v30.97zm-27.06-3.96h23.3v-23.15h-23.3v23.16zM378.43 430.87h-31V399.9h31v30.97zm-27.07-3.96h23.15v-23.15h-23.14v23.16zM376.47 367.03H349.4v27.12h27.07v-27.12zM422.94 401.83h-27.06v27.12h27.06v-27.12zM424.9 396.07h-30.98V365.1h30.98v30.97zm-27.06-3.96h23.14v-23.15h-23.14v23.16z" stroke="#000" stroke-opacity="0" fill="#4c535d"/><use xlink:href="#q" transform="matrix(1,0,0,1,245.86120661808047,457.2670062828206) translate(83.55 14.4)"/><path d="M204.67 527.27V396.9c0-3.3 2.68-6 6-6h46.7" stroke="#5e5e5e" stroke-width="2" fill="none"/><path d="M205.67 528.27h-2v-1.03h2z" stroke="#5e5e5e" stroke-width=".05" fill="#5e5e5e"/><path d="M272.63 390.9l-14.27 4.64v-9.27z" stroke="#5e5e5e" stroke-width="2" fill="#5e5e5e"/><path d="M368.83 527.27v-33c0-3.32-2.7-6-6-6h-75.7c-3.3 0-6-2.7-6-6v-15.5" stroke="#5e5e5e" stroke-width="2" fill="none"/><path d="M369.83 528.27h-2v-1.03h2z" stroke="#5e5e5e" stroke-width=".05" fill="#5e5e5e"/><path d="M281.13 451.5l4.64 14.27h-9.28z" stroke="#5e5e5e" stroke-width="2" fill="#5e5e5e"/><path d="M525.24 527.27V399.3c0-3.3-2.68-6-6-6h-46.8" stroke="#5e5e5e" stroke-width="2" fill="none"/><path d="M526.24 528.27h-2v-1.03h2z" stroke="#5e5e5e" stroke-width=".05" fill="#5e5e5e"/><path d="M457.16 393.3l14.27-4.63v9.27z" stroke="#5e5e5e" stroke-width="2" fill="#5e5e5e"/><path d="M751.6 620h-75.5c-8.8 0-16.1 7.32-16.1 16.08v87.84c0 8.76 7.3 16.08 16.1 16.08h83.6c8.8 0 16.1-7.32 16.1-16.08v-80.16L751.6 620zm14.24 103.92c0 3.48-2.66 6.12-6.14 6.12h-83.6c-3.48 0-6.14-2.64-6.14-6.12v-87.84c0-3.48 2.66-6.12 6.14-6.12h70.63v19.56h19.1v74.4z" stroke="#000" stroke-opacity="0" fill="#2a3282"/><path d="M743.95 707v.48c-.34 2.28-3 4.56-5.32 4.56H718.7c-2.3 0-3.8-2.28-3.46-4.56V707c.7-2.28 3-4.2 5.32-4.2h19.92c2.78-.36 4.28 1.56 3.47 4.2zm-53.26 3.12c-1.63-1.92-.82-4.56 1.5-6.12l35.3-24.6-22.7-24.84c-1.5-1.56-.68-4.2 1.64-6.24h.34c1.16-.72 3.48-1.08 4.98.84l21.9 24.48 2.65 2.76.36.36c1.62 1.56 1.97 4.92.46 6.48L733.3 686l-35.32 24.48c-2.66 1.56-5.8 1.56-7.3-.36z" stroke="#000" stroke-opacity="0" fill="#2a3282"/><use xlink:href="#r" transform="matrix(1,0,0,1,630,749) translate(41.62499999999999 14.4)"/><path d="M751.6 440h-75.5c-8.8 0-16.1 7.32-16.1 16.08v87.84c0 8.76 7.3 16.08 16.1 16.08h83.6c8.8 0 16.1-7.32 16.1-16.08v-80.16L751.6 440zm14.24 103.92c0 3.48-2.66 6.12-6.14 6.12h-83.6c-3.48 0-6.14-2.64-6.14-6.12v-87.84c0-3.48 2.66-6.12 6.14-6.12h70.63v19.56h19.1v74.4z" stroke="#000" stroke-opacity="0" fill="#2a3282"/><path d="M743.95 527v.48c-.34 2.28-3 4.56-5.32 4.56H718.7c-2.3 0-3.8-2.28-3.46-4.56V527c.7-2.28 3-4.2 5.32-4.2h19.92c2.78-.36 4.28 1.56 3.47 4.2zm-53.26 3.12c-1.63-1.92-.82-4.56 1.5-6.12l35.3-24.6-22.7-24.84c-1.5-1.56-.68-4.2 1.64-6.24h.34c1.16-.72 3.48-1.08 4.98.84l21.9 24.48 2.65 2.76.36.36c1.62 1.56 1.97 4.92.46 6.48L733.3 506l-35.32 24.48c-2.66 1.56-5.8 1.56-7.3-.36z" stroke="#000" stroke-opacity="0" fill="#2a3282"/><use xlink:href="#s" transform="matrix(1,0,0,1,630,569) translate(49.525 14.4)"/><path d="M659 683.6h-31.6c-3.32 0-6-2.7-6-6v-82.37c0-3.32-2.7-6-6-6h-14.1" stroke="#5e5e5e" stroke-width="2" fill="none"/><path d="M660 684.6h-1.03v-2H660z" stroke="#5e5e5e" stroke-width=".05" fill="#5e5e5e"/><path d="M586.02 589.23l14.27-4.64v9.26z" stroke="#5e5e5e" stroke-width="2" fill="#5e5e5e"/><path d="M659 505.65h-33c-3.3 0-6 2.7-6 6v65.2c0 3.33-2.7 6-6 6h-12.7" stroke="#5e5e5e" stroke-width="2" fill="none"/><path d="M660 506.65h-1.03v-2H660z" stroke="#5e5e5e" stroke-width=".05" fill="#5e5e5e"/><path d="M586.02 582.86l14.27-4.63v9.27z" stroke="#5e5e5e" stroke-width="2" fill="#5e5e5e"/><defs><path fill="#333" d="M232-93c-1 65-40 97-104 97C67 4 28-28 28-90v-158h33c8 89-33 224 67 224 102 0 64-133 71-224h33v155" id="t"/><path fill="#333" d="M135-143c-3-34-86-38-87 0 15 53 115 12 119 90S17 21 10-45l28-5c4 36 97 45 98 0-10-56-113-15-118-90-4-57 82-63 122-42 12 7 21 19 24 35" id="u"/><path fill="#333" d="M84 4C-5 8 30-112 23-190h32v120c0 31 7 50 39 49 72-2 45-101 50-169h31l1 190h-30c-1-10 1-25-2-33-11 22-28 36-60 37" id="v"/><path fill="#333" d="M141-36C126-15 110 5 73 4 37 3 15-17 15-53c-1-64 63-63 125-63 3-35-9-54-41-54-24 1-41 7-42 31l-33-3c5-37 33-52 76-52 45 0 72 20 72 64v82c-1 20 7 32 28 27v20c-31 9-61-2-59-35zM48-53c0 20 12 33 32 33 41-3 63-29 60-74-43 2-92-5-92 41" id="w"/><path fill="#333" d="M114-163C36-179 61-72 57 0H25l-1-190h30c1 12-1 29 2 39 6-27 23-49 58-41v29" id="x"/><path fill="#333" d="M24-231v-30h32v30H24zM24 0v-190h32V0H24" id="y"/><path fill="#333" d="M100-194c62-1 85 37 85 99 1 63-27 99-86 99S16-35 15-95c0-66 28-99 85-99zM99-20c44 1 53-31 53-75 0-43-8-75-51-75s-53 32-53 75 10 74 51 75" id="z"/><g id="a"><use transform="matrix(0.06172839506172839,0,0,0.06172839506172839,0,0)" xlink:href="#t"/><use transform="matrix(0.06172839506172839,0,0,0.06172839506172839,15.987654320987653,0)" xlink:href="#u"/><use transform="matrix(0.06172839506172839,0,0,0.06172839506172839,27.098765432098766,0)" xlink:href="#v"/><use transform="matrix(0.06172839506172839,0,0,0.06172839506172839,39.44444444444444,0)" xlink:href="#w"/><use transform="matrix(0.06172839506172839,0,0,0.06172839506172839,51.79012345679012,0)" xlink:href="#x"/><use transform="matrix(0.06172839506172839,0,0,0.06172839506172839,59.1358024691358,0)" xlink:href="#y"/><use transform="matrix(0.06172839506172839,0,0,0.06172839506172839,64.01234567901234,0)" xlink:href="#z"/></g><path d="M30 0v-248h33v221h125V0H30" id="A"/><path d="M100-194c62-1 85 37 85 99 1 63-27 99-86 99S16-35 15-95c0-66 28-99 85-99zM99-20c44 1 53-31 53-75 0-43-8-75-51-75s-53 32-53 75 10 74 51 75zM76-211c8-23 27-35 38-54h36v5l-58 49H76" id="B"/><path d="M177-190C167-65 218 103 67 71c-23-6-38-20-44-43l32-5c15 47 100 32 89-28v-30C133-14 115 1 83 1 29 1 15-40 15-95c0-56 16-97 71-98 29-1 48 16 59 35 1-10 0-23 2-32h30zM94-22c36 0 50-32 50-73 0-42-14-75-50-75-39 0-46 34-46 75s6 73 46 73" id="C"/><path d="M24-231v-30h32v30H24zM24 0v-190h32V0H24" id="D"/><path d="M96-169c-40 0-48 33-48 73s9 75 48 75c24 0 41-14 43-38l32 2c-6 37-31 61-74 61-59 0-76-41-82-99-10-93 101-131 147-64 4 7 5 14 7 22l-32 3c-4-21-16-35-41-35" id="E"/><path d="M141-36C126-15 110 5 73 4 37 3 15-17 15-53c-1-64 63-63 125-63 3-35-9-54-41-54-24 1-41 7-42 31l-33-3c5-37 33-52 76-52 45 0 72 20 72 64v82c-1 20 7 32 28 27v20c-31 9-61-2-59-35zM48-53c0 20 12 33 32 33 41-3 63-29 60-74-43 2-92-5-92 41" id="F"/><g id="b"><use transform="matrix(0.05,0,0,0.05,0,0)" xlink:href="#A"/><use transform="matrix(0.05,0,0,0.05,10,0)" xlink:href="#B"/><use transform="matrix(0.05,0,0,0.05,20,0)" xlink:href="#C"/><use transform="matrix(0.05,0,0,0.05,30,0)" xlink:href="#D"/><use transform="matrix(0.05,0,0,0.05,33.95,0)" xlink:href="#E"/><use transform="matrix(0.05,0,0,0.05,42.95,0)" xlink:href="#F"/></g><path d="M85-194c31 0 48 13 60 33l-1-100h32l1 261h-30c-2-10 0-23-3-31C134-8 116 4 85 4 32 4 16-35 15-94c0-66 23-100 70-100zm9 24c-40 0-46 34-46 75 0 40 6 74 45 74 42 0 51-32 51-76 0-42-9-74-50-73" id="G"/><path d="M100-194c63 0 86 42 84 106H49c0 40 14 67 53 68 26 1 43-12 49-29l28 8c-11 28-37 45-77 45C44 4 14-33 15-96c1-61 26-98 85-98zm52 81c6-60-76-77-97-28-3 7-6 17-6 28h103" id="H"/><g id="c"><use transform="matrix(0.05,0,0,0.05,0,0)" xlink:href="#G"/><use transform="matrix(0.05,0,0,0.05,10,0)" xlink:href="#H"/></g><path d="M135-143c-3-34-86-38-87 0 15 53 115 12 119 90S17 21 10-45l28-5c4 36 97 45 98 0-10-56-113-15-118-90-4-57 82-63 122-42 12 7 21 19 24 35" id="I"/><path d="M114-163C36-179 61-72 57 0H25l-1-190h30c1 12-1 29 2 39 6-27 23-49 58-41v29" id="J"/><path d="M108 0H70L1-190h34L89-25l56-165h34" id="K"/><path d="M100-194c62-1 85 37 85 99 1 63-27 99-86 99S16-35 15-95c0-66 28-99 85-99zM99-20c44 1 53-31 53-75 0-43-8-75-51-75s-53 32-53 75 10 74 51 75" id="L"/><g id="d"><use transform="matrix(0.05,0,0,0.05,0,0)" xlink:href="#I"/><use transform="matrix(0.05,0,0,0.05,9,0)" xlink:href="#H"/><use transform="matrix(0.05,0,0,0.05,19,0)" xlink:href="#J"/><use transform="matrix(0.05,0,0,0.05,24.95,0)" xlink:href="#K"/><use transform="matrix(0.05,0,0,0.05,33.95,0)" xlink:href="#D"/><use transform="matrix(0.05,0,0,0.05,37.900000000000006,0)" xlink:href="#G"/><use transform="matrix(0.05,0,0,0.05,47.900000000000006,0)" xlink:href="#L"/><use transform="matrix(0.05,0,0,0.05,57.900000000000006,0)" xlink:href="#J"/></g><path d="M205 0l-28-72H64L36 0H1l101-248h38L239 0h-34zm-38-99l-47-123c-12 45-31 82-46 123h93" id="M"/><path d="M115-194c55 1 70 41 70 98S169 2 115 4C84 4 66-9 55-30l1 105H24l-1-265h31l2 30c10-21 28-34 59-34zm-8 174c40 0 45-34 45-75s-6-73-45-74c-42 0-51 32-51 76 0 43 10 73 51 73" id="N"/><path d="M106-169C34-169 62-67 57 0H25v-261h32l-1 103c12-21 28-36 61-36 89 0 53 116 60 194h-32v-121c2-32-8-49-39-48" id="O"/><g id="e"><use transform="matrix(0.05,0,0,0.05,0,0)" xlink:href="#M"/><use transform="matrix(0.05,0,0,0.05,12,0)" xlink:href="#N"/><use transform="matrix(0.05,0,0,0.05,22,0)" xlink:href="#F"/><use transform="matrix(0.05,0,0,0.05,32,0)" xlink:href="#E"/><use transform="matrix(0.05,0,0,0.05,41,0)" xlink:href="#O"/><use transform="matrix(0.05,0,0,0.05,51,0)" xlink:href="#H"/></g><path d="M0 4l72-265h28L28 4H0" id="P"/><use transform="matrix(0.05,0,0,0.05,0,0)" xlink:href="#P" id="f"/><path d="M190 0L58-211 59 0H30v-248h39L202-35l-2-213h31V0h-41" id="Q"/><path d="M117-194c89-4 53 116 60 194h-32v-121c0-31-8-49-39-48C34-167 62-67 57 0H25l-1-190h30c1 10-1 24 2 32 11-22 29-35 61-36" id="R"/><path d="M141 0L90-78 38 0H4l68-98-65-92h35l48 74 47-74h35l-64 92 68 98h-35" id="S"/><g id="g"><use transform="matrix(0.05,0,0,0.05,0,0)" xlink:href="#Q"/><use transform="matrix(0.05,0,0,0.05,12.950000000000001,0)" xlink:href="#C"/><use transform="matrix(0.05,0,0,0.05,22.950000000000003,0)" xlink:href="#D"/><use transform="matrix(0.05,0,0,0.05,26.900000000000002,0)" xlink:href="#R"/><use transform="matrix(0.05,0,0,0.05,36.900000000000006,0)" xlink:href="#S"/></g><path d="M160-131c35 5 61 23 61 61C221 17 115-2 30 0v-248c76 3 177-17 177 60 0 33-19 50-47 57zm-97-11c50-1 110 9 110-42 0-47-63-36-110-37v79zm0 115c55-2 124 14 124-45 0-56-70-42-124-44v89" id="T"/><path d="M143 0L79-87 56-68V0H24v-261h32v163l83-92h37l-77 82L181 0h-38" id="U"/><g id="h"><use transform="matrix(0.05,0,0,0.05,0,0)" xlink:href="#T"/><use transform="matrix(0.05,0,0,0.05,12,0)" xlink:href="#F"/><use transform="matrix(0.05,0,0,0.05,22,0)" xlink:href="#E"/><use transform="matrix(0.05,0,0,0.05,31,0)" xlink:href="#U"/><use transform="matrix(0.05,0,0,0.05,40,0)" xlink:href="#H"/><use transform="matrix(0.05,0,0,0.05,50,0)" xlink:href="#R"/><use transform="matrix(0.05,0,0,0.05,60,0)" xlink:href="#G"/></g><path d="M30-248c118-7 216 8 213 122C240-48 200 0 122 0H30v-248zM63-27c89 8 146-16 146-99s-60-101-146-95v194" id="V"/><g id="i"><use transform="matrix(0.05,0,0,0.05,0,0)" xlink:href="#V"/><use transform="matrix(0.05,0,0,0.05,12.950000000000001,0)" xlink:href="#L"/><use transform="matrix(0.05,0,0,0.05,22.950000000000003,0)" xlink:href="#E"/><use transform="matrix(0.05,0,0,0.05,31.950000000000003,0)" xlink:href="#U"/><use transform="matrix(0.05,0,0,0.05,40.95,0)" xlink:href="#H"/><use transform="matrix(0.05,0,0,0.05,50.95,0)" xlink:href="#J"/></g><path d="M153-248C145-148 188 4 80 4 36 3 13-21 6-62l32-5c4 25 16 42 43 43 27 0 39-20 39-49v-147H72v-28h81" id="W"/><path d="M185-189c-5-48-123-54-124 2 14 75 158 14 163 119 3 78-121 87-175 55-17-10-28-26-33-46l33-7c5 56 141 63 141-1 0-78-155-14-162-118-5-82 145-84 179-34 5 7 8 16 11 25" id="X"/><path d="M59-47c-2 24 18 29 38 22v24C64 9 27 4 27-40v-127H5v-23h24l9-43h21v43h35v23H59v120" id="Y"/><g id="j"><use transform="matrix(0.05,0,0,0.05,0,0)" xlink:href="#W"/><use transform="matrix(0.05,0,0,0.05,9,0)" xlink:href="#F"/><use transform="matrix(0.05,0,0,0.05,19,0)" xlink:href="#K"/><use transform="matrix(0.05,0,0,0.05,28,0)" xlink:href="#F"/><use transform="matrix(0.05,0,0,0.05,38,0)" xlink:href="#X"/><use transform="matrix(0.05,0,0,0.05,50,0)" xlink:href="#E"/><use transform="matrix(0.05,0,0,0.05,59,0)" xlink:href="#J"/><use transform="matrix(0.05,0,0,0.05,64.95,0)" xlink:href="#D"/><use transform="matrix(0.05,0,0,0.05,68.9,0)" xlink:href="#N"/><use transform="matrix(0.05,0,0,0.05,78.9,0)" xlink:href="#Y"/></g><g id="k"><use transform="matrix(0.05,0,0,0.05,0,0)" xlink:href="#Q"/><use transform="matrix(0.05,0,0,0.05,12.950000000000001,0)" xlink:href="#L"/><use transform="matrix(0.05,0,0,0.05,22.950000000000003,0)" xlink:href="#G"/><use transform="matrix(0.05,0,0,0.05,32.95,0)" xlink:href="#H"/><use transform="matrix(0.05,0,0,0.05,42.95,0)" xlink:href="#W"/><use transform="matrix(0.05,0,0,0.05,51.95,0)" xlink:href="#X"/></g><path d="M197 0v-115H63V0H30v-248h33v105h134v-105h34V0h-34" id="Z"/><path d="M24 0v-261h32V0H24" id="aa"/><path d="M115-194c53 0 69 39 70 98 0 66-23 100-70 100C84 3 66-7 56-30L54 0H23l1-261h32v101c10-23 28-34 59-34zm-8 174c40 0 45-34 45-75 0-40-5-75-45-74-42 0-51 32-51 76 0 43 10 73 51 73" id="ab"/><g id="l"><use transform="matrix(0.05,0,0,0.05,0,0)" xlink:href="#Z"/><use transform="matrix(0.05,0,0,0.05,12.950000000000001,0)" xlink:href="#F"/><use transform="matrix(0.05,0,0,0.05,22.950000000000003,0)" xlink:href="#R"/><use transform="matrix(0.05,0,0,0.05,32.95,0)" xlink:href="#G"/><use transform="matrix(0.05,0,0,0.05,42.95,0)" xlink:href="#aa"/><use transform="matrix(0.05,0,0,0.05,46.900000000000006,0)" xlink:href="#H"/><use transform="matrix(0.05,0,0,0.05,56.900000000000006,0)" xlink:href="#ab"/><use transform="matrix(0.05,0,0,0.05,66.9,0)" xlink:href="#F"/><use transform="matrix(0.05,0,0,0.05,76.9,0)" xlink:href="#J"/><use transform="matrix(0.05,0,0,0.05,82.85000000000001,0)" xlink:href="#I"/></g><path d="M30 0v-248h187v28H63v79h144v27H63v87h162V0H30" id="ac"/><g id="m"><use transform="matrix(0.05,0,0,0.05,0,0)" xlink:href="#ac"/><use transform="matrix(0.05,0,0,0.05,12,0)" xlink:href="#S"/><use transform="matrix(0.05,0,0,0.05,21,0)" xlink:href="#N"/><use transform="matrix(0.05,0,0,0.05,31,0)" xlink:href="#J"/><use transform="matrix(0.05,0,0,0.05,36.95,0)" xlink:href="#H"/><use transform="matrix(0.05,0,0,0.05,46.95,0)" xlink:href="#I"/><use transform="matrix(0.05,0,0,0.05,55.95,0)" xlink:href="#I"/><use transform="matrix(0.05,0,0,0.05,64.95,0)" xlink:href="#W"/><use transform="matrix(0.05,0,0,0.05,73.95,0)" xlink:href="#X"/></g><path fill="#333" d="M240 0l2-218c-23 76-54 145-80 218h-23L58-218 59 0H30v-248h44l77 211c21-75 51-140 76-211h43V0h-30" id="ad"/><path fill="#333" d="M30-248c118-7 216 8 213 122C240-48 200 0 122 0H30v-248zM63-27c89 8 146-16 146-99s-60-101-146-95v194" id="ae"/><path fill="#333" d="M160-131c35 5 61 23 61 61C221 17 115-2 30 0v-248c76 3 177-17 177 60 0 33-19 50-47 57zm-97-11c50-1 110 9 110-42 0-47-63-36-110-37v79zm0 115c55-2 124 14 124-45 0-56-70-42-124-44v89" id="af"/><g id="n"><use transform="matrix(0.06172839506172839,0,0,0.06172839506172839,0,0)" xlink:href="#ad"/><use transform="matrix(0.06172839506172839,0,0,0.06172839506172839,18.456790123456788,0)" xlink:href="#w"/><use transform="matrix(0.06172839506172839,0,0,0.06172839506172839,30.80246913580247,0)" xlink:href="#x"/><use transform="matrix(0.06172839506172839,0,0,0.06172839506172839,38.148148148148145,0)" xlink:href="#y"/><use transform="matrix(0.06172839506172839,0,0,0.06172839506172839,43.02469135802469,0)" xlink:href="#w"/><use transform="matrix(0.06172839506172839,0,0,0.06172839506172839,55.37037037037037,0)" xlink:href="#ae"/><use transform="matrix(0.06172839506172839,0,0,0.06172839506172839,71.35802469135803,0)" xlink:href="#af"/></g><path d="M127-220V0H93v-220H8v-28h204v28h-85" id="ag"/><path d="M240 0l2-218c-23 76-54 145-80 218h-23L58-218 59 0H30v-248h44l77 211c21-75 51-140 76-211h43V0h-30" id="ah"/><g id="o"><use transform="matrix(0.05,0,0,0.05,0,0)" xlink:href="#Z"/><use transform="matrix(0.05,0,0,0.05,12.950000000000001,0)" xlink:href="#ag"/><use transform="matrix(0.05,0,0,0.05,23.900000000000002,0)" xlink:href="#ah"/><use transform="matrix(0.05,0,0,0.05,38.85,0)" xlink:href="#A"/></g><path d="M212-179c-10-28-35-45-73-45-59 0-87 40-87 99 0 60 29 101 89 101 43 0 62-24 78-52l27 14C228-24 195 4 139 4 59 4 22-46 18-125c-6-104 99-153 187-111 19 9 31 26 39 46" id="ai"/><g id="p"><use transform="matrix(0.05,0,0,0.05,0,0)" xlink:href="#ai"/><use transform="matrix(0.05,0,0,0.05,12.950000000000001,0)" xlink:href="#X"/><use transform="matrix(0.05,0,0,0.05,24.950000000000003,0)" xlink:href="#X"/></g><path d="M63-220v92h138v28H63V0H30v-248h175v28H63" id="aj"/><g id="q"><use transform="matrix(0.05,0,0,0.05,0,0)" xlink:href="#aj"/><use transform="matrix(0.05,0,0,0.05,10.950000000000001,0)" xlink:href="#J"/><use transform="matrix(0.05,0,0,0.05,16.900000000000002,0)" xlink:href="#L"/><use transform="matrix(0.05,0,0,0.05,26.900000000000002,0)" xlink:href="#R"/><use transform="matrix(0.05,0,0,0.05,36.900000000000006,0)" xlink:href="#Y"/><use transform="matrix(0.05,0,0,0.05,41.900000000000006,0)" xlink:href="#H"/><use transform="matrix(0.05,0,0,0.05,51.900000000000006,0)" xlink:href="#R"/><use transform="matrix(0.05,0,0,0.05,61.900000000000006,0)" xlink:href="#G"/></g><g id="r"><use transform="matrix(0.05,0,0,0.05,0,0)" xlink:href="#X"/><use transform="matrix(0.05,0,0,0.05,12,0)" xlink:href="#E"/><use transform="matrix(0.05,0,0,0.05,21,0)" xlink:href="#J"/><use transform="matrix(0.05,0,0,0.05,26.950000000000003,0)" xlink:href="#L"/><use transform="matrix(0.05,0,0,0.05,36.95,0)" xlink:href="#aa"/><use transform="matrix(0.05,0,0,0.05,40.900000000000006,0)" xlink:href="#aa"/><use transform="matrix(0.05,0,0,0.05,44.85000000000001,0)" xlink:href="#ah"/><use transform="matrix(0.05,0,0,0.05,59.80000000000001,0)" xlink:href="#F"/><use transform="matrix(0.05,0,0,0.05,69.80000000000001,0)" xlink:href="#C"/><use transform="matrix(0.05,0,0,0.05,79.80000000000001,0)" xlink:href="#D"/><use transform="matrix(0.05,0,0,0.05,83.75000000000001,0)" xlink:href="#E"/></g><g id="s"><use transform="matrix(0.05,0,0,0.05,0,0)" xlink:href="#T"/><use transform="matrix(0.05,0,0,0.05,12,0)" xlink:href="#L"/><use transform="matrix(0.05,0,0,0.05,22,0)" xlink:href="#L"/><use transform="matrix(0.05,0,0,0.05,32,0)" xlink:href="#Y"/><use transform="matrix(0.05,0,0,0.05,37,0)" xlink:href="#I"/><use transform="matrix(0.05,0,0,0.05,46,0)" xlink:href="#Y"/><use transform="matrix(0.05,0,0,0.05,51,0)" xlink:href="#J"/><use transform="matrix(0.05,0,0,0.05,56.95,0)" xlink:href="#F"/><use transform="matrix(0.05,0,0,0.05,66.95,0)" xlink:href="#N"/></g></defs></g></svg>